<svg id="Gruppe_1" data-name="Gruppe 1" xmlns="http://www.w3.org/2000/svg" xmlns:xlink="http://www.w3.org/1999/xlink" width="1920.003" height="1080" viewBox="0 0 1920.003 1080">
  <defs>
    <linearGradient id="linear-gradient" x1="0.185" y1="0.017" x2="1" y2="0.246" gradientUnits="objectBoundingBox">
      <stop offset="0" stop-color="#56428e"/>
      <stop offset="1" stop-color="#2b2147"/>
    </linearGradient>
    <linearGradient id="linear-gradient-2" x1="0.453" y1="0.019" x2="1.434" y2="0.2" gradientUnits="objectBoundingBox">
      <stop offset="0" stop-color="#614c9c"/>
      <stop offset="1" stop-color="#31264e"/>
    </linearGradient>
    <linearGradient id="linear-gradient-3" x1="0.231" y1="0.259" x2="1.983" y2="0.717" xlink:href="#linear-gradient-2"/>
  </defs>
  <g id="Group_9" data-name="Group 9">
    <rect id="Rectangle_35" data-name="Rectangle 35" width="58" height="314" transform="translate(0 766)" fill="#7360c2"/>
    <rect id="Rectangle_67" data-name="Rectangle 67" width="58" height="314" transform="translate(1856 766)" fill="#7360c2"/>
    <rect id="Rectangle_66" data-name="Rectangle 66" width="58" height="314" transform="translate(928 766)" fill="#7360c2"/>
    <rect id="Rectangle_50" data-name="Rectangle 50" width="58" height="314" transform="translate(464 766)" fill="#7360c2"/>
    <rect id="Rectangle_65" data-name="Rectangle 65" width="58" height="314" transform="translate(1392 766)" fill="#7360c2"/>
    <rect id="Rectangle_42" data-name="Rectangle 42" width="58" height="314" transform="translate(232 766)" fill="#7360c2"/>
    <rect id="Rectangle_64" data-name="Rectangle 64" width="58" height="314" transform="translate(1160 766)" fill="#7360c2"/>
    <rect id="Rectangle_49" data-name="Rectangle 49" width="58" height="314" transform="translate(696 766)" fill="#7360c2"/>
    <rect id="Rectangle_63" data-name="Rectangle 63" width="58" height="314" transform="translate(1624 766)" fill="#7360c2"/>
    <rect id="Rectangle_38" data-name="Rectangle 38" width="58" height="314" transform="translate(116 766)" fill="#7360c2"/>
    <rect id="Rectangle_62" data-name="Rectangle 62" width="58" height="314" transform="translate(1044 766)" fill="#7360c2"/>
    <rect id="Rectangle_48" data-name="Rectangle 48" width="58" height="314" transform="translate(580 766)" fill="#7360c2"/>
    <rect id="Rectangle_61" data-name="Rectangle 61" width="58" height="314" transform="translate(1508 766)" fill="#7360c2"/>
    <rect id="Rectangle_41" data-name="Rectangle 41" width="58" height="314" transform="translate(348 766)" fill="#7360c2"/>
    <rect id="Rectangle_60" data-name="Rectangle 60" width="58" height="314" transform="translate(1276 766)" fill="#7360c2"/>
    <rect id="Rectangle_47" data-name="Rectangle 47" width="58" height="314" transform="translate(812 766)" fill="#7360c2"/>
    <rect id="Rectangle_59" data-name="Rectangle 59" width="58" height="314" transform="translate(1740 766)" fill="#7360c2"/>
    <rect id="Rectangle_36" data-name="Rectangle 36" width="58" height="314" transform="translate(58 766)" fill="#6b5ab1"/>
    <rect id="Rectangle_58" data-name="Rectangle 58" width="58" height="314" transform="translate(986 766)" fill="#6b5ab1"/>
    <rect id="Rectangle_46" data-name="Rectangle 46" width="58" height="314" transform="translate(522 766)" fill="#6b5ab1"/>
    <rect id="Rectangle_57" data-name="Rectangle 57" width="58" height="314" transform="translate(1450 766)" fill="#6b5ab1"/>
    <rect id="Rectangle_40" data-name="Rectangle 40" width="58" height="314" transform="translate(290 766)" fill="#6b5ab1"/>
    <rect id="Rectangle_56" data-name="Rectangle 56" width="58" height="314" transform="translate(1218 766)" fill="#6b5ab1"/>
    <rect id="Rectangle_45" data-name="Rectangle 45" width="58" height="314" transform="translate(754 766)" fill="#6b5ab1"/>
    <rect id="Rectangle_55" data-name="Rectangle 55" width="58" height="314" transform="translate(1682 766)" fill="#6b5ab1"/>
    <rect id="Rectangle_37" data-name="Rectangle 37" width="58" height="314" transform="translate(174 766)" fill="#6b5ab1"/>
    <rect id="Rectangle_54" data-name="Rectangle 54" width="58" height="314" transform="translate(1102 766)" fill="#6b5ab1"/>
    <rect id="Rectangle_44" data-name="Rectangle 44" width="58" height="314" transform="translate(638 766)" fill="#6b5ab1"/>
    <rect id="Rectangle_53" data-name="Rectangle 53" width="58" height="314" transform="translate(1566 766)" fill="#6b5ab1"/>
    <rect id="Rectangle_39" data-name="Rectangle 39" width="58" height="314" transform="translate(406 766)" fill="#6b5ab1"/>
    <rect id="Rectangle_52" data-name="Rectangle 52" width="58" height="314" transform="translate(1334 766)" fill="#6b5ab1"/>
    <rect id="Rectangle_43" data-name="Rectangle 43" width="58" height="314" transform="translate(870 766)" fill="#6b5ab1"/>
    <rect id="Rectangle_51" data-name="Rectangle 51" width="58" height="314" transform="translate(1798 766)" fill="#6b5ab1"/>
    <rect id="Rectangle_69" data-name="Rectangle 69" width="1920" height="33" transform="translate(0 734)" fill="#715bb9"/>
  </g>
  <g id="Group_12" data-name="Group 12">
    <path id="Path_109" data-name="Path 109" d="M0,0H390V366H15.07V18.485H0Z" transform="translate(1530 714)" fill="url(#linear-gradient)"/>
    <path id="Path_110" data-name="Path 110" d="M.07-1.508H375V346H0Z" transform="translate(1545 734)" fill="url(#linear-gradient-2)"/>
    <path id="Path_111" data-name="Path 111" d="M.034-1.508H182.48V325.531H0Z" transform="translate(1567 745)" fill="#57448d"/>
    <path id="Path_120" data-name="Path 120" d="M.033-1.508H178.878v41.09H0Z" transform="translate(1568.603 747.101)" fill="#5f4b97"/>
    <path id="Path_123" data-name="Path 123" d="M.033-1.508H178.878v41.09H0Z" transform="translate(1568.603 835.101)" fill="#5f4b97"/>
    <path id="Path_121" data-name="Path 121" d="M.033-1.508H178.878v41.09H0Z" transform="translate(1568.603 791.101)" fill="#5f4b97"/>
    <path id="Path_122" data-name="Path 122" d="M.033-1.508H178.878v41.09H0Z" transform="translate(1568.603 879.101)" fill="#5f4b97"/>
    <path id="Path_124" data-name="Path 124" d="M.033-1.508H178.878v41.09H0Z" transform="translate(1568.603 923.101)" fill="#5f4b97"/>
    <path id="Path_125" data-name="Path 125" d="M.033-1.508H178.878v41.09H0Z" transform="translate(1568.603 967.101)" fill="#5f4b97"/>
    <path id="Path_125-2" data-name="Path 125" d="M.033-1.508H178.878v41.09H0Z" transform="translate(1568.801 1011.101)" fill="#5f4b97"/>
    <path id="Path_112" data-name="Path 112" d="M.029-1.508H158V325.531H0Z" transform="translate(1762 745)" fill="#57448d"/>
    <path id="Path_130" data-name="Path 130" d="M.029-1.508H155.4v41.09H0Z" transform="translate(1764.603 747.101)" fill="#5f4b97"/>
    <path id="Path_128" data-name="Path 128" d="M.029-1.508H155.4v41.09H0Z" transform="translate(1764.603 835.101)" fill="#5f4b97"/>
    <path id="Path_129" data-name="Path 129" d="M.029-1.508H155.4v41.09H0Z" transform="translate(1764.603 791.101)" fill="#5f4b97"/>
    <path id="Path_127" data-name="Path 127" d="M.029-1.508H155.4v41.09H0Z" transform="translate(1764.603 879.101)" fill="#5f4b97"/>
    <path id="Path_131" data-name="Path 131" d="M.029-1.508H155.4v41.09H0Z" transform="translate(1764.603 967.101)" fill="#5f4b97"/>
    <path id="Path_126" data-name="Path 126" d="M.029-1.508H155.4v41.09H0Z" transform="translate(1764.603 923.101)" fill="#5f4b97"/>
    <path id="Path_132" data-name="Path 132" d="M.029-1.508H155.4v41.09H0Z" transform="translate(1764.603 1011.101)" fill="#5f4b97"/>
    <g id="Group_10" data-name="Group 10">
      <path id="Path_113" data-name="Path 113" d="M10.631,0h89.692L112,87H0Z" transform="translate(1650 627)" fill="#6550a2"/>
      <path id="Path_114" data-name="Path 114" d="M9.452,0H89.2L99.581,77.353H0Z" transform="translate(1656.419 631.647)" fill="#9a83dc"/>
      <path id="Path_115" data-name="Path 115" d="M15.9-26.583H44.65a175.405,175.405,0,0,0-5.03,61.089C40.951,47.731,47.961,51.129,52.556,69,56.149,81.22,58,106,58,106H0S-2.064,94.157,5.841,69s11.37-21.438,12.936-34.5A190.149,190.149,0,0,0,15.9-26.583Z" transform="translate(1788 608)" fill="url(#linear-gradient-3)"/>
      <path id="Path_116" data-name="Path 116" d="M0,0S9.424,16.585,13.674,33.335A127.157,127.157,0,0,1,17,67" transform="translate(1797.5 519.5)" fill="none" stroke="#614c9c" stroke-width="1"/>
      <path id="Path_119" data-name="Path 119" d="M17.085,0S7.661,16.585,3.411,33.335A127.157,127.157,0,0,0,.085,67" transform="translate(1821.403 527.5)" fill="none" stroke="#614c9c" stroke-width="1"/>
      <path id="Path_117" data-name="Path 117" d="M0,0S9.424,16.585,13.674,33.335A127.157,127.157,0,0,1,17,67" transform="matrix(0.961, 0.276, -0.276, 0.961, 1816.065, 522.443)" fill="none" stroke="#614c9c" stroke-width="1"/>
      <path id="Path_118" data-name="Path 118" d="M0,67S9.424,50.415,13.674,33.665A127.158,127.158,0,0,0,17,0" transform="matrix(-0.961, 0.276, -0.276, -0.961, 1838.391, 594.848)" fill="none" stroke="#614c9c" stroke-width="1"/>
      <ellipse id="Ellipse_28" data-name="Ellipse 28" cx="6" cy="5.5" rx="6" ry="5.5" transform="translate(1790 510)" fill="#614c9c"/>
      <ellipse id="Ellipse_29" data-name="Ellipse 29" cx="6" cy="5.5" rx="6" ry="5.5" transform="translate(1809 514)" fill="#614c9c"/>
      <ellipse id="Ellipse_30" data-name="Ellipse 30" cx="6" cy="5.5" rx="6" ry="5.5" transform="translate(1815 522)" fill="#614c9c"/>
      <ellipse id="Ellipse_31" data-name="Ellipse 31" cx="6" cy="5.5" rx="6" ry="5.5" transform="translate(1832 521)" fill="#614c9c"/>
      <circle id="Ellipse_32" data-name="Ellipse 32" cx="5.5" cy="5.5" r="5.5" transform="translate(1651 748)" fill="#57448d"/>
      <circle id="Ellipse_38" data-name="Ellipse 38" cx="5.5" cy="5.5" r="5.5" transform="translate(1853 748)" fill="#57448d"/>
      <circle id="Ellipse_42" data-name="Ellipse 42" cx="5.5" cy="5.5" r="5.5" transform="translate(1853 928)" fill="#57448d"/>
      <circle id="Ellipse_35" data-name="Ellipse 35" cx="5.5" cy="5.5" r="5.5" transform="translate(1651 836)" fill="#57448d"/>
      <circle id="Ellipse_37" data-name="Ellipse 37" cx="5.5" cy="5.5" r="5.5" transform="translate(1853 836)" fill="#57448d"/>
      <circle id="Ellipse_41" data-name="Ellipse 41" cx="5.5" cy="5.5" r="5.5" transform="translate(1853 1016)" fill="#57448d"/>
      <circle id="Ellipse_33" data-name="Ellipse 33" cx="5.5" cy="5.5" r="5.5" transform="translate(1651 792)" fill="#57448d"/>
      <circle id="Ellipse_39" data-name="Ellipse 39" cx="5.5" cy="5.5" r="5.5" transform="translate(1853 792)" fill="#57448d"/>
      <circle id="Ellipse_43" data-name="Ellipse 43" cx="5.5" cy="5.5" r="5.5" transform="translate(1853 972)" fill="#57448d"/>
      <circle id="Ellipse_34" data-name="Ellipse 34" cx="5.5" cy="5.5" r="5.5" transform="translate(1651 880)" fill="#57448d"/>
      <circle id="Ellipse_44" data-name="Ellipse 44" cx="5.5" cy="5.5" r="5.5" transform="translate(1651 925)" fill="#57448d"/>
      <circle id="Ellipse_44-2" data-name="Ellipse 44" cx="5.5" cy="5.5" r="5.5" transform="translate(1651 970)" fill="#57448d"/>
      <circle id="Ellipse_44-3" data-name="Ellipse 44" cx="5.5" cy="5.5" r="5.5" transform="translate(1651 1015)" fill="#57448d"/>
      <circle id="Ellipse_36" data-name="Ellipse 36" cx="5.5" cy="5.5" r="5.5" transform="translate(1853 880)" fill="#57448d"/>
      <path id="Path_135" data-name="Path 135" d="M22.807,78.006s3.589-9.75,11.9-13.6,21.358-1.8,21.358-1.8H84.083c10.282,0,11.04-3.85,11.04-3.85l5.3-10.154s-6.86-5.682-7.533-13.447,2.232-17.967,2.232-17.967-1.451-14.655,0-14.99,9.964,10.5,9.964,10.5,12.517-2.089,19.666,2.256,8.928,15.121,8.928,15.121.614,10.867-6.361,16.126-21.538,4.91-21.538,4.91-3.132,14.071-.694,21.918A15.937,15.937,0,0,0,114.956,83.1s14.1-2.421,22.311-.858,10.3,7.847,10.3,7.847H28.409s-2.7,3.157-1.811,10.175.868,6.528,6.1,16.55,10.085,12.04,15.2,25.986,2.574,24.028,2.574,24.028-3.756,14.343-10.161,20.35-15.46,3.678-15.46,3.678-7.355-3.524-6.865-7.846,2.053-4.75,6.865-7.355,7.321.413,12.382-3.065a13.8,13.8,0,0,0,5.53-9.5,40.322,40.322,0,0,0-2.451-19.607c-4.042-9.964-13.716-20.25-13.716-20.25s-5.276-6.234-6.224-17.54S22.807,78.006,22.807,78.006Z" transform="translate(1502 624)" fill="#2e2c2c"/>
      <path id="Path_136" data-name="Path 136" d="M6.772,2.649a9.218,9.218,0,0,1,2.43.34c.957.334,2.045,4.163,2.045,4.163s-.376-4.467.429-4.163a1.548,1.548,0,0,1,1.11.777c1.137,2.753-.047,4.809-3.583,4.809S-1.36,3.766-1.36,3.766A45.421,45.421,0,0,1,6.772,2.649Z" transform="translate(1617 642)" fill="#9a94d9"/>
    </g>
  </g>
  <g id="Rechteck_1" data-name="Rechteck 1" fill="#fff" stroke="#707070" stroke-width="1" opacity="0">
    <rect width="1920" height="1080" stroke="none"/>
    <rect x="0.5" y="0.5" width="1919" height="1079" fill="none"/>
  </g>
</svg>
