<svg xmlns="http://www.w3.org/2000/svg" xmlns:xlink="http://www.w3.org/1999/xlink" width="1818.68" height="714.178" viewBox="0 0 1818.68 714.178">
    <defs>
        <linearGradient id="linear-gradient" x1="0.634" y1="0.565" x2="-0.06" y2="0.044" gradientUnits="objectBoundingBox">
            <stop offset="0" stop-color="#5c419b"/>
            <stop offset="1" stop-color="#2e214e"/>
        </linearGradient>
        <linearGradient id="linear-gradient-2" x1="1.672" y1="0.41" x2="0.005" y2="0.542" gradientUnits="objectBoundingBox">
            <stop offset="0" stop-color="#453174"/>
            <stop offset="1" stop-color="#77689b"/>
        </linearGradient>
        <linearGradient id="linear-gradient-3" x1="0.512" y1="0.633" x2="0.437" y2="-0.183" gradientUnits="objectBoundingBox">
            <stop offset="0" stop-color="#583f96"/>
            <stop offset="1" stop-color="#2c204b"/>
        </linearGradient>
    </defs>
    <g id="lampe" transform="translate(-159 -346.681)">
        <path id="Path_19" data-name="Path 19" d="M16.921,655.923l-37.9-674.212" transform="translate(238.5 396.5)" stroke="#5c419b" stroke-linecap="round" stroke-width="16" fill="url(#linear-gradient)"/>
        <rect id="Rectangle_21" data-name="Rectangle 21" width="37" height="35" rx="3" transform="translate(159 788)" fill="#684ca8"/>
        <path id="Path_21" data-name="Path 21" d="M51.492,57.937S70.924,187.7,66.565,289.012s26.451,122.724,0,131.4C50.079,425.823,38.6,406.6,38.6,406.6" transform="translate(148.5 399.5)" fill="none" stroke="#5c419b" stroke-width="3"/>
        <path id="Path_76" data-name="Path 76" d="M33.5,0C52,0,67,47.234,67,105.5S51.829,210.407,33.327,210.407,0,163.766,0,105.5,15,0,33.5,0Z" transform="translate(353.134 378.328) rotate(47)" fill="url(#linear-gradient-2)"/>
        <path id="Path_139" data-name="Path 139" d="M-1.651,110.688,29.43,33.851,144.438-3.632,1759.68,654H69.556Z" transform="translate(218 400)" fill="#fff" opacity="0.1"/>
        <path id="Path_77" data-name="Path 77" d="M30,0A29.753,29.753,0,0,1,60,29.5,29.753,29.753,0,0,1,30,59,29.753,29.753,0,0,1,0,29.5C0,23.214-8.368,10.315-10.983,0-12.066-4.269-4.44-11.716.161-10.345,10-7.419,24.882,0,30,0Z" transform="translate(251 426)" fill="#ffd677"/>
        <circle id="Ellipse_26" data-name="Ellipse 26" cx="8" cy="8" r="8" transform="translate(170 800)" fill="#5c419b"/>
        <path id="Subtraction_2" data-name="Subtraction 2" d="M133.134,285.313A263.9,263.9,0,0,1,113,256.439a224.143,224.143,0,0,1-15.064-29.228,129.485,129.485,0,0,1-9.4-32.97,184.984,184.984,0,0,1-1.722-29.553,98.624,98.624,0,0,1,3.244-23.157,71.542,71.542,0,0,1,7.881-18.448,84.069,84.069,0,0,1,12.187-15.424,70.744,70.744,0,0,1,11.24-9.322,68.683,68.683,0,0,1,13.224-6.83,80.218,80.218,0,0,1,15.5-4.2,108.543,108.543,0,0,1,18.061-1.431,178.456,178.456,0,0,1,32.591,3.359c10.064,1.892,20.84,5.783,32.031,11.563a201.148,201.148,0,0,1,27.45,17.351,238.183,238.183,0,0,1,26.39,22.693l-.229-.009a20.846,20.846,0,0,0-6.992-1.071c-9.661,0-23.078,4.622-38.8,13.367-16.062,8.934-33.247,21.485-49.7,36.3-16.668,15.008-31.081,30.979-41.681,46.187-10.385,14.9-16.274,27.823-17.029,37.372a2.1,2.1,0,0,0-.079.578q.007.268.015.528a21.237,21.237,0,0,0,.126,3.331c.318,6.716.835,7.791.893,7.891Z" transform="translate(88.155 260.806)" fill="url(#linear-gradient-3)"/>
        <rect id="Rectangle_70" data-name="Rectangle 70" width="22" height="22" rx="5" transform="translate(167 795)" fill="#463177"/>
    </g>
</svg>
