<svg xmlns="http://www.w3.org/2000/svg" width="815.999" height="533.001" viewBox="0 0 815.999 533.001">
  <g id="picture" transform="translate(-104 -51)">
    <path id="Differenzmenge_1" data-name="Differenzmenge 1" d="M155,535H-661V2H155V535ZM-640,23h0V514H134V23H-640Z" transform="translate(765 49)" fill="#7259b9"/>
    <path id="Differenzmenge_2" data-name="Differenzmenge 2" d="M384,486H0V0H384V486ZM19,20V467H365V20Z" transform="translate(127 75)" fill="#7a6bb9"/>
    <path id="Differenzmenge_3" data-name="Differenzmenge 3" d="M384,486H0V0H384V486ZM19,20V467H365V20Z" transform="translate(513 75)" fill="#7a6bb9"/>
    <rect id="Rechteck_6" data-name="Rechteck 6" width="351" height="23" transform="translate(144 306)" fill="#7a6bb9"/>
    <rect id="Rechteck_9" data-name="Rechteck 9" width="351" height="23" transform="translate(530 306)" fill="#7a6bb9"/>
    <rect id="Rechteck_7" data-name="Rechteck 7" width="450" height="23" transform="translate(331 92) rotate(90)" fill="#7a6bb9"/>
    <rect id="Rechteck_8" data-name="Rechteck 8" width="450" height="23" transform="translate(717 92) rotate(90)" fill="#7a6bb9"/>
    <rect id="Rechteck_25" data-name="Rechteck 25" width="12" height="46" rx="3" transform="translate(120 124)" fill="#564b81"/>
    <rect id="Rechteck_28" data-name="Rechteck 28" width="12" height="46" rx="3" transform="translate(893 124)" fill="#564b81"/>
    <rect id="Rechteck_26" data-name="Rechteck 26" width="12" height="46" rx="3" transform="translate(120 466)" fill="#564b81"/>
    <rect id="Rechteck_27" data-name="Rechteck 27" width="12" height="46" rx="3" transform="translate(893 466)" fill="#564b81"/>
    <rect id="Rechteck_29" data-name="Rechteck 29" width="49" height="13" rx="5" transform="translate(454 350)" fill="#564b81"/>
    <rect id="Rechteck_30" data-name="Rechteck 30" width="49" height="13" rx="5" transform="translate(520 350)" fill="#564b81"/>
  </g>
</svg>
