<svg xmlns="http://www.w3.org/2000/svg" width="220" height="220" viewBox="0 0 220 220">
    <g id="thick_guy" data-name="thick guy" transform="translate(35.704 -18.518)">
        <g id="body" transform="translate(-31.453 168.421)">
            <path id="Path_31" data-name="Path 31"
                  d="M111.624-.021v70.1H5.746C17.507,30.963,46.865,9.354,83.946,2.438A151.655,151.655,0,0,1,111.624-.021Z"
                  transform="translate(-5.746 0.022)"/>
            <path id="Path_48" data-name="Path 48"
                  d="M4.182.35V70.07H111.649C99.887,30.958,70.53,9.348,33.449,2.432,24.318.767,13.464.322,4.183.35Z"
                  transform="translate(99.85 0.027)"/>
        </g>
        <path id="Path_1" data-name="Path 1" d="M0,0H39.951V18.644s-10.2,5.314-20.19,5.314S0,18.644,0,18.644Z"
              transform="translate(54.163 151.913)"/>
        <path id="Path_30" data-name="Path 30"
              d="M-1.573-2.431l-.062,144.28a5.924,5.924,0,0,0,2.162-.295c5.049-1.893,26.974-6.172,34.123-13.12S46.025,115.826,48.6,99.372c1.48-9.471.633-21.956,1.1-34.545A109.513,109.513,0,0,0,44.16,27.769C34.544-2.925-1.573-2.431-1.573-2.431Z"
              transform="translate(74.93 21.001)"/>
        <path id="Path_2" data-name="Path 2"
              d="M49.907-2.482l.1,144.373A11.4,11.4,0,0,1,47,141.556c-4.982-1.893-26.608-6.172-33.667-13.12S3.088,115.837.551,99.383C-.9,89.911.034,75.739-.43,63.15-.757,54.342-1.352,41.016,5,26.832,15.345-2.43,49.907-2.482,49.907-2.482Z"
              transform="translate(24.854 21)"/>
        <rect id="Rechteck_1" data-name="Rechteck 1" width="220" height="220"
              transform="translate(-35.704 18.518)" fill="#fff" opacity="0"/>
    </g>
</svg>