<svg xmlns="http://www.w3.org/2000/svg" width="30" height="30" viewBox="0 0 30 30">
    <g id="Vereinigungsmenge_2" transform="translate(0 8)" fill="none">
        <path d="M16.5,12h-3A7.5,7.5,0,1,1,7,.016V0H23V.016A7.5,7.5,0,1,1,16.5,12Z" stroke="none"/>
        <path
                d="M 22.5 13.00030040740967 C 25.53253936767578 13.00030040740967 27.99970054626465 10.53274059295654 27.99970054626465 7.49970006942749 C 27.99970054626465 4.612070083618164 25.74600982666016 2.201640129089355 22.86894989013672 2.012140274047852 L 22.68464660644531 2.000000238418579 L 7.312024593353271 2.000000238418579 L 7.131620407104492 2.011880159378052 C 4.254080295562744 2.201370239257812 2.000000238418579 4.611910343170166 2.000000238418579 7.49970006942749 C 2.000000238418579 10.53274059295654 4.467160224914551 13.00030040740967 7.49970006942749 13.00030040740967 C 9.2464599609375 13.00030040740967 10.85091018676758 12.19783973693848 11.90165996551514 10.79868984222412 L 12.50168991088867 9.999700546264648 L 17.4986400604248 9.999700546264648 L 18.09867095947266 10.79868030548096 C 19.14944076538086 12.19783973693848 20.75366973876953 13.00030040740967 22.5 13.00030040740967 M 22.5 15.00030040740967 C 20.0463695526123 15.00030040740967 17.86771011352539 13.82163047790527 16.49944114685059 11.99970054626465 L 13.50090026855469 11.99970054626465 C 12.13290023803711 13.8213005065918 9.954000473022461 15.00030040740967 7.49970006942749 15.00030040740967 C 3.357900381088257 15.00030040740967 2.731323149873788e-07 11.64239978790283 2.731323149873788e-07 7.49970006942749 C 2.731323149873788e-07 3.526200294494629 3.091500282287598 0.2736001908779144 7.000200271606445 0.01620020344853401 L 7.000200271606445 2.037048290048915e-07 L 23.00040054321289 2.037048290048915e-07 L 23.00040054321289 0.01646020449697971 C 26.90896987915039 0.2739101946353912 29.99970054626465 3.526010274887085 29.99970054626465 7.49970006942749 C 29.99970054626465 11.64239978790283 26.64179992675781 15.00030040740967 22.5 15.00030040740967 Z"
                stroke="none" fill="#fff"/>
    </g>
    <line id="Linie_1" y2="5" transform="translate(6.5 13)" fill="none"
          stroke="#fff" stroke-linecap="round" stroke-width="2"/>
    <line id="Linie_2" y2="5" transform="translate(9 15.5) rotate(90)" fill="none"
          stroke="#fff" stroke-linecap="round" stroke-width="2"/>
    <circle id="Ellipse_4" cx="1.5" cy="1.5" r="1.5" transform="translate(21 11)"
            fill="#fff"/>
    <circle id="Ellipse_5" cx="1.5" cy="1.5" r="1.5" transform="translate(24 14)"
            fill="#fff"/>
    <circle id="Ellipse_6" cx="1.5" cy="1.5" r="1.5" transform="translate(18 14)"
            fill="#fff"/>
    <circle id="Ellipse_7" cx="1.5" cy="1.5" r="1.5" transform="translate(21 17)"
            fill="#fff"/>
    <rect id="Rechteck_4" width="30" height="30" fill="#fff" opacity="0"/>
</svg>