<svg xmlns="http://www.w3.org/2000/svg" width="30.054" height="23.826" viewBox="0 0 30.054 23.826">
    <path id="Pfad_2"
          d="M14.409.434a1,1,0,0,1,1.183,0L29.623,10.02a1,1,0,0,1-.591,1.806H.981A1,1,0,0,1,.39,10.02Z"
          transform="translate(30.033 11.826) rotate(180)" fill="#fff"/>
    <path id="Pfad_1"
          d="M14.994,12.579l3.077-2.248L28,19.746,19.049,9.78,30,2V21a2,2,0,0,1-2,2H2a2,2,0,0,1-2-2V2L11.026,9.78,1.6,19.746l10.372-9.415Z"
          transform="translate(0.033 0.826)" fill="#fff"/>
</svg>