<svg xmlns="http://www.w3.org/2000/svg" width="1920" height="625.424" viewBox="0 0 1920 625.424">
  <g id="png_untere_tisch" data-name="png untere tisch" transform="translate(2 -388.198)">
    <g id="Gruppe_6" data-name="Gruppe 6" transform="translate(-2 106.198)">
      <g id="Pfad_36" data-name="Pfad 36" transform="translate(130.39 640)" fill="#51427b">
        <path d="M 1678.50634765625 242.4999084472656 L 8.370102882385254 242.4999084472656 L 150.5781555175781 27.42032241821289 L 1534.736328125 27.42032241821289 L 1678.50634765625 242.4999084472656 Z" stroke="none"/>
        <path d="M 152.9971923828125 31.92033386230469 L 16.7398681640625 237.9998931884766 L 1670.085327148438 237.9998931884766 L 1532.33154296875 31.92033386230469 L 152.9971923828125 31.92033386230469 M 148.1585693359375 22.92033386230469 L 1537.14111328125 22.92033386230469 L 1686.927001953125 246.9998931884766 L -0.0001220703125 246.9998931884766 L 148.1585693359375 22.92033386230469 Z" stroke="none" fill="#6b5c95"/>
      </g>
      <path id="Pfad_37" data-name="Pfad 37" d="M4.369,0h35.1L35.563,6H0Z" transform="translate(239 663)" fill="#9386b8"/>
      <path id="Pfad_40" data-name="Pfad 40" d="M4.369,0h35.1L35.563,6H0Z" transform="translate(217 696)" fill="#9386b8"/>
      <path id="Pfad_43" data-name="Pfad 43" d="M4.369,0h35.1L35.563,6H0Z" transform="translate(195 729)" fill="#9386b8"/>
      <path id="Pfad_46" data-name="Pfad 46" d="M4.369,0h35.1L35.563,6H0Z" transform="translate(174 762)" fill="#9386b8"/>
      <path id="Pfad_49" data-name="Pfad 49" d="M4.369,0h35.1L35.563,6H0Z" transform="translate(152 795)" fill="#9386b8"/>
      <path id="Pfad_52" data-name="Pfad 52" d="M4.369,0h35.1L35.563,6H0Z" transform="translate(130 828)" fill="#9386b8"/>
      <path id="Pfad_38" data-name="Pfad 38" d="M4.369,0h35.1L35.563,6H0Z" transform="translate(232 674)" fill="#9386b8"/>
      <path id="Pfad_41" data-name="Pfad 41" d="M4.369,0h35.1L35.563,6H0Z" transform="translate(210 707)" fill="#9386b8"/>
      <path id="Pfad_44" data-name="Pfad 44" d="M4.369,0h35.1L35.563,6H0Z" transform="translate(188 740)" fill="#9386b8"/>
      <path id="Pfad_47" data-name="Pfad 47" d="M4.369,0h35.1L35.563,6H0Z" transform="translate(167 773)" fill="#9386b8"/>
      <path id="Pfad_50" data-name="Pfad 50" d="M4.369,0h35.1L35.563,6H0Z" transform="translate(145 806)" fill="#9386b8"/>
      <path id="Pfad_53" data-name="Pfad 53" d="M4.369,0h35.1L35.563,6H0Z" transform="translate(123 839)" fill="#9386b8"/>
      <path id="Pfad_55" data-name="Pfad 55" d="M4.369,0h35.1L35.563,6H0Z" transform="translate(108 861)" fill="#9386b8"/>
      <path id="Pfad_39" data-name="Pfad 39" d="M4.369,0h35.1L35.563,6H0Z" transform="translate(225 685)" fill="#9386b8"/>
      <path id="Pfad_42" data-name="Pfad 42" d="M4.369,0h35.1L35.563,6H0Z" transform="translate(203 718)" fill="#9386b8"/>
      <path id="Pfad_45" data-name="Pfad 45" d="M4.369,0h35.1L35.563,6H0Z" transform="translate(181 751)" fill="#9386b8"/>
      <path id="Pfad_48" data-name="Pfad 48" d="M4.369,0h35.1L35.563,6H0Z" transform="translate(160 784)" fill="#9386b8"/>
      <path id="Pfad_51" data-name="Pfad 51" d="M4.369,0h35.1L35.563,6H0Z" transform="translate(138 817)" fill="#9386b8"/>
      <path id="Pfad_54" data-name="Pfad 54" d="M4.369,0h35.1L35.563,6H0Z" transform="translate(116 850)" fill="#9386b8"/>
      <path id="Pfad_56" data-name="Pfad 56" d="M4.369,0h35.1L35.563,6H0Z" transform="translate(101 872)" fill="#9386b8"/>
      <path id="Pfad_57" data-name="Pfad 57" d="M4.369,0h35.1L35.563,6H0Z" transform="translate(95 881)" fill="#9386b8"/>
      <path id="Pfad_58" data-name="Pfad 58" d="M35.1,0H0L3.911,6H39.474Z" transform="translate(1666 662.92)" fill="#9386b8"/>
      <path id="Pfad_59" data-name="Pfad 59" d="M35.1,0H0L3.911,6H39.474Z" transform="translate(1688 694)" fill="#9386b8"/>
      <path id="Pfad_60" data-name="Pfad 60" d="M35.1,0H0L3.911,6H39.474Z" transform="translate(1710 727)" fill="#9386b8"/>
      <path id="Pfad_61" data-name="Pfad 61" d="M35.1,0H0L3.911,6H39.474Z" transform="translate(1731 760)" fill="#9386b8"/>
      <path id="Pfad_62" data-name="Pfad 62" d="M35.1,0H0L3.911,6H39.474Z" transform="translate(1753 793)" fill="#9386b8"/>
      <path id="Pfad_63" data-name="Pfad 63" d="M35.1,0H0L3.911,6H39.474Z" transform="translate(1775 826)" fill="#9386b8"/>
      <path id="Pfad_64" data-name="Pfad 64" d="M35.1,0H0L3.911,6H39.474Z" transform="translate(1673 672)" fill="#9386b8"/>
      <path id="Pfad_65" data-name="Pfad 65" d="M35.1,0H0L3.911,6H39.474Z" transform="translate(1695 705)" fill="#9386b8"/>
      <path id="Pfad_66" data-name="Pfad 66" d="M35.1,0H0L3.911,6H39.474Z" transform="translate(1717 738)" fill="#9386b8"/>
      <path id="Pfad_67" data-name="Pfad 67" d="M35.1,0H0L3.911,6H39.474Z" transform="translate(1738 771)" fill="#9386b8"/>
      <path id="Pfad_68" data-name="Pfad 68" d="M35.1,0H0L3.911,6H39.474Z" transform="translate(1760 804)" fill="#9386b8"/>
      <path id="Pfad_69" data-name="Pfad 69" d="M35.1,0H0L3.911,6H39.474Z" transform="translate(1782 837)" fill="#9386b8"/>
      <path id="Pfad_70" data-name="Pfad 70" d="M35.1,0H0L3.911,6H39.474Z" transform="translate(1797 859)" fill="#9386b8"/>
      <path id="Pfad_71" data-name="Pfad 71" d="M35.1,0H0L3.911,6H39.474Z" transform="translate(1680 683)" fill="#9386b8"/>
      <path id="Pfad_72" data-name="Pfad 72" d="M35.1,0H0L3.911,6H39.474Z" transform="translate(1702 716)" fill="#9386b8"/>
      <path id="Pfad_73" data-name="Pfad 73" d="M35.1,0H0L3.911,6H39.474Z" transform="translate(1724 749)" fill="#9386b8"/>
      <path id="Pfad_74" data-name="Pfad 74" d="M35.1,0H0L3.911,6H39.474Z" transform="translate(1745 782)" fill="#9386b8"/>
      <path id="Pfad_75" data-name="Pfad 75" d="M35.1,0H0L3.911,6H39.474Z" transform="translate(1767 815)" fill="#9386b8"/>
      <path id="Pfad_76" data-name="Pfad 76" d="M35.1,0H0L3.911,6H39.474Z" transform="translate(1789 848)" fill="#9386b8"/>
      <path id="Pfad_77" data-name="Pfad 77" d="M35.1,0H0L3.911,6H39.474Z" transform="translate(1804 870)" fill="#9386b8"/>
      <path id="Pfad_78" data-name="Pfad 78" d="M35.1,0H0L3.911,6H39.474Z" transform="translate(1811 881)" fill="#9386b8"/>
      <path id="Differenzmenge_2" data-name="Differenzmenge 2" d="M266.576,336.566,0,268.3l266.575-65.889L536.607,268.3,266.575,336.566Zm.471-116.162h0L73.258,268.3l193.789,49.624,196.3-49.624-196.3-47.9Z" transform="translate(725.924 502.196)" fill="#7c6da7"/>
      <path id="Differenzmenge_3" data-name="Differenzmenge 3" d="M123.5,264.566,0,232.94l123.5-30.526,125.1,30.526L123.5,264.566Zm.218-53.817h0L33.94,232.94l89.781,22.991,90.945-22.991-90.945-22.191Z" transform="translate(869.925 538.196)" fill="#7c6da7"/>
      <path id="Pfad_83" data-name="Pfad 83" d="M223.223,73.577,634-7.435,317.206,73.577,634,159.411Z" transform="translate(339.854 697.012)" fill="#7c6da7"/>
      <path id="Pfad_84" data-name="Pfad 84" d="M416.788,73.577,0-7.435,316.794,73.577,0,159.411Z" transform="translate(1006.854 696.435)" fill="#7c6da7"/>
      <path id="Pfad_85" data-name="Pfad 85" d="M19.34,2.133h6.609a7.021,7.021,0,0,1,7.021,7.021l.076,15.388a8.3,8.3,0,0,1-8.3,8.3H22.187l-.022,11.254-7.746-3.535V26.114s.832-3.789,3.537-5.053,4.209,0,4.209,0V12.477s-.908-1.905-3.9-1.584-6.69,2.871-6.69,2.871V8.946C11.574,4.716,15.11,2.133,19.34,2.133Z" transform="translate(1015.308 750.113) rotate(90)" fill="#7c6da7"/>
      <path id="Pfad_86" data-name="Pfad 86" d="M2.981.643h8L8,8H0Z" transform="translate(960.235 764.423)" fill="#7c6da7"/>
    </g>
    <path id="Pfad_7" data-name="Pfad 7" d="M2.029,0H52.68V346.391s-5.4,9.221-25.247,9.221-25.4-9.221-25.4-9.221Z" transform="translate(104 543.3)" fill="#362a57"/>
    <path id="Pfad_8" data-name="Pfad 8" d="M2.029,0H52.68V346.391s-5.4,9.221-25.247,9.221-25.4-9.221-25.4-9.221Z" transform="translate(560 658.009)" fill="#362a57"/>
    <path id="Pfad_9" data-name="Pfad 9" d="M2.029,0H52.68V346.391s-5.4,9.221-25.247,9.221-25.4-9.221-25.4-9.221Z" transform="translate(1304 658.009)" fill="#362a57"/>
    <path id="Pfad_10" data-name="Pfad 10" d="M2.029,0H52.68V346.391s-5.4,9.221-25.247,9.221-25.4-9.221-25.4-9.221Z" transform="translate(1760 543.3)" fill="#362a57"/>
    <path id="Path_38" data-name="Path 38" d="M960,269.709c429.3,0,960-120.755,960-269.709V-38.922l-19.238,15.457L12.291-24.343,0-39.8V0C0,148.955,530.7,269.709,960,269.709Z" transform="translate(-2 429)" fill="#68569a"/>
    <path id="Path_38-2" data-name="Path 38" d="M960,269.709c429.3,0,960-120.755,960-269.709H0C0,148.955,530.7,269.709,960,269.709Z" transform="translate(-2 388.198)" fill="#362a57"/>
    <path id="Pfad_6" data-name="Pfad 6" d="M-1.4-3.093v.585l.329,1.766.245,4.023L3.122,36.666s1.492,46.747,9.113,83.195,11.819,47.95,20.26,60.444,36.806,19.585,42.885,31.4,2.365,114.134,3.378,161.746c.542,25.472.368,72.095,5.065,116.5s10.348,49.632,19.585,61.119c7.541,9.376,342.675,54.553,355.63,55.6s22.648,1.459,22.648,1.459h16.759" transform="translate(1419.5 391.3)" fill="none" stroke="#fff" stroke-width="3"/>
    <g id="Gruppe_5" data-name="Gruppe 5" transform="translate(-578.031 303.988)">
      <path id="Pfad_28" data-name="Pfad 28" d="M43.948,48.336h259.2V84.019H43.948Z" transform="translate(808.151 65.224)" fill="#3f3f3f"/>
      <path id="Pfad_26" data-name="Pfad 26" d="M178.579-26.475,309.588,82.169v35.682L178.579,9.207Z" transform="translate(932.715 140.526)" fill="#4a4a4a"/>
      <path id="Pfad_27" data-name="Pfad 27" d="M13.119-5.469H253.406l106.9,88.759L59.215,101.045Z" transform="translate(857.888 154.712)" fill="#2b2a2d"/>
      <path id="Pfad_24" data-name="Pfad 24" d="M43.948,48.336H193.52s3.181,7.141,13.287,7.141,12.585-7.141,12.585-7.141H370.473V84.019H43.948Z" transform="translate(871.83 174.02)" fill="#3f3f3f"/>
      <path id="Pfad_25" data-name="Pfad 25" d="M224.941-27.233l63.68,109.745v35.682L224.941,8.449Z" transform="translate(627.157 139.844)" fill="#868094"/>
      <path id="Pfad_29" data-name="Pfad 29" d="M42.159,50.6l324.98.758,4.13,3.245-326.511.411Z" transform="translate(871.021 167.784)" fill="#565656"/>
      <path id="Pfad_30" data-name="Pfad 30" d="M1.41,57.346,157.12,0l-1.867,2.919L0,59.186Z" transform="translate(1160.984 84.21) rotate(60)" fill="#565656"/>
      <path id="Pfad_35" data-name="Pfad 35" d="M1.8,2.437,130.355,0l-3.018,5.227L0,5.549Z" transform="translate(856.904 110.06) rotate(60)" fill="#565656"/>
      <g id="Ellipse_5" data-name="Ellipse 5" transform="translate(930.376 229.129)" fill="#2b2a2d" stroke="#363636" stroke-width="1">
        <circle cx="10.892" cy="10.892" r="10.892" stroke="none"/>
        <circle cx="10.892" cy="10.892" r="10.392" fill="none"/>
      </g>
      <g id="Ellipse_6" data-name="Ellipse 6" transform="translate(1203.396 229.129)" fill="#2b2a2d" stroke="#363636" stroke-width="1">
        <circle cx="10.892" cy="10.892" r="10.892" stroke="none"/>
        <circle cx="10.892" cy="10.892" r="10.392" fill="none"/>
      </g>
      <path id="Pfad_33" data-name="Pfad 33" d="M6.542,0H72.561S71.719,6.778,68.5,20.412C66.044,30.8,52.571,46.918,46,54.332c-1.665,1.88-3.719,2.338-9.991-4.546s-10.2-19.067-15.1-22.99-35.377-11.38-35.377-11.38Z" transform="translate(949.974 193.369)" fill="#7e7e7e"/>
      <path id="Pfad_34" data-name="Pfad 34" d="M6.542,0H72.561S71.719,6.778,68.5,20.412C66.044,30.8,52.571,46.918,46,54.332c-1.407,1.589-2.376,1.543-6.967-2.774-.466-.434-1.933,3.841-2.906,2.774a24.139,24.139,0,0,0-.792-4.887C34.726,47.624,25.182,30.213,20.911,26.8c-4.9-3.923-35.377-11.38-35.377-11.38Z" transform="translate(949.974 190.619)" fill="#b2a385"/>
      <circle id="Ellipse_7" data-name="Ellipse 7" cx="7.261" cy="7.261" r="7.261" transform="translate(991.37 218.963)" fill="#915e5e"/>
      <circle id="Ellipse_8" data-name="Ellipse 8" cx="7.261" cy="7.261" r="7.261" transform="translate(973.943 208.797)" fill="#a17070"/>
      <path id="Pfad_23" data-name="Pfad 23" d="M.116-.182l258.33.265L397.494,87.827l-169.087,8.41s-.754,7.541-15.769,6.6-15.6-5.323-15.6-5.323L64.79,102.84.636.693Z" transform="translate(852.008 112.868)" fill="#746895"/>
      <path id="Pfad_31" data-name="Pfad 31" d="M-.094,1.738,31.22.422" transform="translate(1048.691 208.262)" fill="none" stroke="#4e4665" stroke-width="0.2"/>
      <path id="Pfad_32" data-name="Pfad 32" d="M-.462,0h31" transform="translate(1063.047 220.593)" fill="none" stroke="#272727" stroke-width="0.5"/>
      <path id="PIZZA" d="M52.881,46.592l-9.174.152q-1.132.019-1.857-.241t-1.207-.859L24.835,26.067q-.444-.55-.152-.8t1.387-.249l17.42-.035q3.813-.008,6.74.37T55.218,26.5q4.127,1.532,6.322,4.035l3.273,3.731q2.254,2.57.839,4.21-1.43,1.658-9.221,1.754l-6.653.082,4.277,5.121q.5.593.219.867T52.881,46.592ZM41.4,30.415l3.728,4.465,5.17-.045q1.658-.014,1.794-.464t-.343-1.01L50.42,31.8q-.474-.556-1.357-.992t-2.53-.425ZM82.34,46.1q-1.074.018-1.788-.235t-1.23-.835l-3.21-3.616q-.508-.572-.257-.834t1.316-.275l5.526-.069L73.817,30.4l-5.447.031q-1.05.006-1.738-.236t-1.172-.788L62.4,25.966q-.476-.537-.222-.777t1.295-.242L86.441,24.9q1.008,0,1.68.232t1.17.761l3.2,3.382q.506.536.279.778t-1.243.249l-5.207.03,9.06,9.745,5.281-.066q1.03-.013,1.726.232t1.227.806l3.35,3.545q.539.571.318.834t-1.26.281Zm59.286-.985-26.267.437q-1.026.017-1.729-.23t-1.247-.816l-3.8-3.972q-.534-.558-.618-.987t.22-.845l4.627-8.523-11.2.064q-1,.006-1.681-.231t-1.189-.77l-3.227-3.368q-.5-.524-.281-.76t1.216-.237l23.677-.047q.961,0,1.624.227t1.186.743l4.141,4.073q.561.552.664.955t-.166.8l-4.026,8.095,12.441-.156q.98-.012,1.666.226t1.243.786l3.518,3.453q.566.556.379.812T141.627,45.117Zm33.23-.552-25.015.416q-.977.016-1.67-.225t-1.262-.8l-3.98-3.872q-.559-.544-.679-.962t.133-.824l3.642-8.314-10.679.061q-.956.006-1.625-.225t-1.2-.751l-3.386-3.288q-.527-.512-.338-.742t1.139-.231l22.594-.045q.918,0,1.571.222t1.2.726l4.319,3.978q.585.539.719.933t-.088.778l-3.117,7.9,11.857-.149q.934-.012,1.61.221t1.257.766l3.663,3.368q.59.542.434.792T174.857,44.565Zm4.364-14.312,2.36,4.1,7.438-.068-6.828-4.052q-.459-.238-.79-.343t-.614-.1l-1.178.007q-.283,0-.376.109T179.221,30.253Zm11.853,13.008q.6.536.458.782t-1.06.262l-7.151.119q-.93.015-1.612-.22t-1.275-.775l-8.1-7.382q-.905-.825-1.618-1.9t-1.3-2.483l-2.527-6.062q-.21-.446.149-.657t1.3-.212l12.586-.025q.88,0,1.7.2t1.6.645L195.1,31.486q2.524,1.374,4.17,2.41t2.587,1.847l8.37,7.215q.612.528.488.771t-1.017.258l-7.137.119q-.951.016-1.675-.215t-1.329-.763l-4.42-3.885-8.438.109Z" transform="translate(913.18 125.364)" fill="#c4c0c0"/>
    </g>
    <g id="Gruppe_4" data-name="Gruppe 4" transform="translate(0 3.3)">
      <path id="Pfad_11" data-name="Pfad 11" d="M61.172,24.956l140.242-12.27L155.433,115.7,0,138,30.769,81.14Z" transform="matrix(0.996, 0.087, -0.087, 0.996, 661.596, 498.928)" fill="#828282"/>
      <path id="Pfad_13" data-name="Pfad 13" d="M98.069,141.071l158.674,13.042-46.959,104.93L52.608,243.968Z" transform="matrix(0.996, 0.087, -0.087, 0.996, 774.596, 379.928)" fill="#6b6b6b"/>
      <path id="Pfad_14" data-name="Pfad 14" d="M47.392,25.764,201.277,3.708l13.607,116.243-157,25.765Z" transform="matrix(0.996, 0.087, -0.087, 0.996, 605.596, 605.928)" fill="#575656"/>
      <path id="Pfad_15" data-name="Pfad 15" d="M99.028,131.536,256.2,147,270.99,263.713l-161.666-14.5Z" transform="matrix(0.996, 0.087, -0.087, 0.996, 718.596, 486.928)" fill="#4d4c4c"/>
      <path id="Pfad_16" data-name="Pfad 16" d="M1.891,0h119.27L77,82-54.035,86.882Z" transform="translate(724 538)" fill="#bcbcbc"/>
      <path id="Pfad_18" data-name="Pfad 18" d="M-4.437-9.41,130.811,14.558,87.44,95.022-48.949,72.2Z" transform="translate(869 549.263)" fill="#9f9f9f"/>
      <text id="_" data-name="  " transform="translate(730 585)" fill="#676666" font-size="9" font-family="Bungee-Regular, Bungee"><tspan x="0" y="0" xml:space="preserve">  </tspan></text>
      <line id="Linie_1" data-name="Linie 1" x2="124" y2="22" transform="translate(866.5 546.5)" fill="none" stroke="#707070" stroke-width="1"/>
      <line id="Linie_5" data-name="Linie 5" x2="96" y2="16" transform="translate(855.5 568.5)" fill="none" stroke="#707070" stroke-width="1"/>
      <line id="Linie_2" data-name="Linie 2" x2="124" y2="22" transform="translate(863.5 551.972)" fill="none" stroke="#707070" stroke-width="1"/>
      <line id="Linie_6" data-name="Linie 6" x2="96" y2="16.528" transform="translate(852.5 573.972)" fill="none" stroke="#707070" stroke-width="1"/>
      <line id="Linie_3" data-name="Linie 3" x2="94.362" y2="16" transform="translate(861.138 557.5)" fill="none" stroke="#707070" stroke-width="1"/>
      <line id="Linie_7" data-name="Linie 7" x2="124" y2="22" transform="translate(850.138 579.5)" fill="none" stroke="#707070" stroke-width="1"/>
      <line id="Linie_9" data-name="Linie 9" x2="124" y2="22" transform="translate(844.138 590.5)" fill="none" stroke="#707070" stroke-width="1"/>
      <line id="Linie_4" data-name="Linie 4" x2="95.362" y2="16.528" transform="translate(858.138 562.972)" fill="none" stroke="#707070" stroke-width="1"/>
      <line id="Linie_8" data-name="Linie 8" x2="124" y2="22" transform="translate(847.138 584.972)" fill="none" stroke="#707070" stroke-width="1"/>
      <path id="Pfad_19" data-name="Pfad 19" d="M.773-.993,25.709,3.422l-9.87,18.962L-7.539,17.708Z" transform="translate(959 574)" fill="#c5c5c5"/>
      <path id="Pfad_20" data-name="Pfad 20" d="M.773-.993,123.135,21.345,111.966,40.826-10.9,19.786Z" transform="translate(841.053 597.377)" fill="#c5c5c5"/>
      <path id="WHO_IS_THIS_MAN_" data-name="WHO IS THIS MAN ?" d="M11.013,6.653h1.5q.191,0,.251.059t0,.191L11.583,9.609q-.1.224-.208.417t-.355.452l-.925.955q-.1.105-.226.179t-.291.073l-1.346,0q-.04,0-.078,0t-.071-.009a.59.59,0,0,1-.065-.016.48.48,0,0,1-.058-.022q-.11-.049-.1-.162L7.9,10.327q0-.07-.034-.095t-.1-.025H7.682q-.061,0-.117.024t-.117.094l-.981,1.143q-.087.105-.222.158a.72.72,0,0,1-.069.023q-.035.01-.072.016t-.076.01q-.039,0-.079,0l-1.332,0a.62.62,0,0,1-.076,0,.437.437,0,0,1-.066-.013.318.318,0,0,1-.057-.022.252.252,0,0,1-.047-.031q-.085-.07-.085-.183l-.071-.968Q4.2,10.2,4.262,10t.161-.416L5.623,6.9q.059-.132.17-.19t.3-.059H7.638q.191,0,.25.059t0,.191L6.751,9.465l.974-.879q.133-.118.285-.167t.344-.049h.423q.191,0,.3.049t.138.167l.2.88L10.541,6.9q.058-.132.17-.191T11.013,6.653Zm2.909,5.04-1.575,0q-.193,0-.253-.06t0-.194L14.067,6.9q.057-.132.169-.191t.3-.059H16.1q.192,0,.252.059t0,.191l-.654,1.513H17.4L18.049,6.9q.057-.132.168-.192t.3-.059h1.57q.193,0,.254.059t0,.192L18.41,11.447q-.057.134-.17.194t-.306.06l-1.58,0q-.194,0-.254-.061t0-.194l.672-1.563-1.7,0L14.4,11.44q-.058.134-.17.194T13.922,11.693Zm12.594-1.316q-.135.325-.384.59t-.681.452q-.432.187-1.1.292t-1.618.1q-.952,0-1.532-.109t-.852-.3q-.273-.188-.3-.453t.112-.589l1.017-2.394q.137-.322.385-.584t.679-.45q.43-.188,1.095-.293t1.611-.105q.947,0,1.52.1t.847.293q.274.189.3.451t-.105.585Zm-3.927-.259q-.059.141.054.236t.665.1q.552,0,.746-.094t.253-.236L25.1,8.229Q25.156,8.1,25.043,8t-.664-.095q-.551,0-.743.094t-.249.228Zm7.2,1.6q-.2,0-.259-.061t-.007-.2l.347-.843q.055-.134.167-.195t.308-.06h1.019L32.333,8H31.316q-.195,0-.258-.06t-.008-.193L31.4,6.9q.055-.133.166-.193t.306-.06l4.372,0q.2,0,.259.06t.01.193l-.343.851q-.054.134-.166.194T35.7,8h-1l-.963,2.373h1q.2,0,.26.061t.009.2l-.341.845q-.055.135-.167.2t-.309.06Zm9.511.017-3.279-.006q-.2,0-.261-.061t-.009-.2l.334-.832q.054-.135.166-.2t.309-.06l2.786,0q.135,0,.226-.06t.125-.145q.048-.121,0-.178t-.177-.064L38.03,9.8q-.7-.072-1.033-.327t-.1-.848l.3-.74q.241-.6.936-.918t1.695-.32h2.891q.2,0,.261.06t.012.194l-.331.839q-.053.134-.165.194t-.309.06H39.777q-.134,0-.231.06t-.133.152q-.037.092.01.155t.179.071l1.486.142q.7.071,1.042.326t.111.851l-.294.746q-.238.605-.944.929T39.3,11.739Zm9.087.016-1.7,0q-.2,0-.264-.061t-.013-.2L47.767,8H46.238q-.2,0-.262-.06t-.013-.194l.333-.854q.052-.134.164-.194t.309-.06l5.491,0q.2,0,.264.06t.015.194l-.326.856q-.051.135-.163.195t-.31.06H50.2l-1.342,3.5q-.052.136-.165.2T48.387,11.756Zm5.323.01-1.63,0q-.2,0-.266-.061t-.014-.2l1.751-4.613q.051-.134.163-.194t.31-.06h1.619q.2,0,.265.06t.016.195l-.579,1.54H57.1l.576-1.541q.05-.135.162-.195t.311-.06h1.625q.2,0,.266.06t.017.195l-1.714,4.626q-.051.137-.163.2t-.313.061l-1.636,0q-.2,0-.267-.062t-.016-.2l.594-1.59-1.755,0-.6,1.589q-.051.136-.164.2T53.709,11.765Zm6.2.011q-.2,0-.268-.062t-.017-.2l.315-.854q.05-.136.162-.2t.313-.061h1.046L62.345,8H61.3q-.2,0-.267-.061t-.017-.2l.317-.86q.05-.135.161-.2t.311-.06l4.486,0q.2,0,.268.06t.019.2l-.311.862q-.049.135-.161.2t-.313.061H64.771l-.873,2.4h1.028q.2,0,.269.061t.019.2l-.309.856q-.049.137-.162.2t-.314.061Zm9.762.018-3.366-.006q-.2,0-.27-.062t-.019-.2l.3-.842q.049-.137.161-.2t.314-.061l2.86,0q.138,0,.229-.061t.122-.147q.043-.122-.005-.18t-.185-.065l-1.541-.152q-.718-.072-1.076-.331t-.142-.859l.27-.75q.218-.606.916-.93T69.97,6.63h2.967q.2,0,.271.06t.021.2l-.3.85q-.048.136-.16.2t-.314.061H69.983q-.138,0-.234.061t-.129.154q-.033.093.018.157t.187.072l1.532.144q.719.072,1.086.33t.155.862l-.266.756q-.215.613-.924.941T69.675,11.794Zm7.77.014-1.6,0q-.2,0-.274-.062t-.022-.2l1.614-4.66q.047-.136.159-.2t.314-.061h1.716q.171,0,.266.05t.152.164l.562,1.168q.031.065.059.093t.092.029h.1q.064,0,.111-.029t.123-.093l1.35-1.169q.135-.115.264-.165t.3-.05h1.735q.2,0,.274.061t.025.2l-1.569,4.675q-.046.138-.159.2t-.317.061l-1.66,0q-.2,0-.275-.062t-.024-.2l.863-2.544-.9.785q-.138.123-.291.177t-.357.054h-.429q-.2,0-.319-.054t-.17-.177l-.363-.786-.872,2.541q-.047.138-.16.2T77.445,11.808ZM88.637,8.132l-.869,1.1h1.7l-.147-1.1q-.022-.065-.061-.094t-.1-.029h-.27q-.065,0-.123.029T88.637,8.132Zm-1.748,3.431q-.046.138-.158.2t-.318.061l-1.589,0q-.205,0-.276-.062t-.025-.2l.639-1.913q.072-.217.269-.5t.536-.656L87.443,6.86q.1-.122.258-.179t.368-.058h2.895q.2,0,.321.057t.141.18l.407,1.636q.094.376.105.658t-.059.5l-.622,1.919q-.045.138-.157.2t-.319.061l-1.639,0q-.217,0-.3-.062t-.037-.2l.334-1.018-1.914,0Zm7.645.276-1.633,0q-.207,0-.279-.063t-.028-.2l1.514-4.694q.044-.137.156-.2t.317-.061H95.7q.206,0,.338.043t.238.151l1.595,1.6.487-1.539q.043-.137.155-.2t.318-.061h1.628q.206,0,.28.061t.03.2L99.3,11.584q-.044.139-.156.2t-.32.062l-1.639,0q-.207,0-.281-.063t-.029-.2l.284-.9L95.775,9.177l-.766,2.4q-.044.139-.157.2T94.533,11.839ZM108.05,9.864l-3.056.267q-.213.014-.29-.037t-.068-.19l.065-.961q.01-.138.125-.211t.327-.087l2.24-.2q.169-.014.25-.065t.114-.16q.031-.1-.03-.153t-.2-.051h-3.018q-.207,0-.281-.062t-.031-.2l.27-.876q.042-.137.154-.2t.319-.062h3.527q1.061,0,1.564.329t.319.947l-.229.764q-.183.612-.724.875T108.05,9.864Zm-1.836,2-2.012,0q-.209,0-.283-.063t-.032-.2l.294-.958q.043-.139.155-.2t.32-.062l2.008,0q.209,0,.283.062t.032.2l-.291.96q-.042.139-.155.2T106.214,11.86Z" transform="translate(720.493 544.306)" fill="#676666"/>
      <g id="Gruppe_3" data-name="Gruppe 3" transform="translate(711.977 558.728)">
        <g id="Pfad_17" data-name="Pfad 17" transform="translate(0 0)" fill="#8b8b8b">
          <path d="M52.548,2.748A34.768,34.768,0,0,1,64.621,5.582,25.3,25.3,0,0,1,73.4,11.916a20.309,20.309,0,0,1,4.628,9.037,21.72,21.72,0,0,1-.49,10.89A29.724,29.724,0,0,1,71.62,42.561a40.4,40.4,0,0,1-10.1,8.475A46.5,46.5,0,0,1,48.7,56.3a43.54,43.54,0,0,1-14,1.141A33.739,33.739,0,0,1,22.32,54.08a24.294,24.294,0,0,1-8.5-6.927A20.092,20.092,0,0,1,9.892,37.78a22.462,22.462,0,0,1,1.221-10.766,30.859,30.859,0,0,1,6.226-10.191A41.032,41.032,0,0,1,27.148,8.94,46.564,46.564,0,0,1,39.277,4.014,43.878,43.878,0,0,1,52.548,2.748Z" stroke="none"/>
          <path d="M 34.4266357421875 58.27207183837891 C 33.24788284301758 58.17130279541016 32.09518051147461 58.02242660522461 30.97050476074219 57.82604598999023 C 29.8471565246582 57.62989807128906 28.75193977355957 57.38640213012695 27.68679428100586 57.09617233276367 C 26.62306785583496 56.80633163452148 25.58949851989746 56.46992492675781 24.58798789978027 56.08759689331055 C 23.58796501159668 55.70584487915039 22.62004852294922 55.27835845947266 21.68613052368164 54.8057975769043 C 20.78561401367188 54.35014343261719 19.92616081237793 53.85766220092773 19.10901641845703 53.32951736450195 C 18.29323577880859 52.80224609375 17.51969528198242 52.23948669433594 16.78962326049805 51.64240646362305 C 16.06082916259766 51.04637908935547 15.37540626525879 50.41619110107422 14.73455715179443 49.75303268432617 C 14.09487819671631 49.09108734130859 13.49965953826904 48.39632415771484 12.95007610321045 47.6699333190918 C 12.40153217315674 46.94491958618164 11.90536880493164 46.19751739501953 11.4620304107666 45.42923736572266 C 11.0195426940918 44.66242599487305 10.62969017028809 43.87482452392578 10.2929105758667 43.06791687011719 C 9.956781387329102 42.2625617980957 9.673526763916016 41.4379768371582 9.443582534790039 40.59563064575195 C 9.214081764221191 39.75490570068359 9.037685394287109 38.89649200439453 8.914821624755859 38.02183532714844 C 8.787854194641113 37.11795043945312 8.719730377197266 36.20653533935547 8.710086822509766 35.28919219970703 C 8.700464248657227 34.37363433837891 8.749094009399414 33.45212173461914 8.855627059936523 32.52626800537109 C 8.961959838867188 31.60215759277344 9.125980377197266 30.67365646362305 9.347353935241699 29.74234771728516 C 9.568323135375977 28.81273078918457 9.846451759338379 27.88025283813477 10.18141555786133 26.94648170471191 C 10.51579189300537 26.01434135437012 10.90186023712158 25.09469223022461 11.33858585357666 24.1889591217041 C 11.77460479736328 23.28469085693359 12.26116847991943 22.39417457580566 12.79727268218994 21.51882171630859 C 13.33258152008057 20.64477157592773 13.91734981536865 19.78572273254395 14.55060386657715 18.94307899475098 C 15.18300151824951 18.10157585144043 15.86383724212646 17.27631568908691 16.59216690063477 16.46870803833008 C 17.29472732543945 15.68966388702393 18.03394317626953 14.9350757598877 18.80835914611816 14.20599746704102 C 19.58199119567871 13.47765350341797 20.39088249206543 12.77465534210205 21.23359680175781 12.09805774688721 C 22.07560348510742 11.42203903198242 22.95151519775391 10.77226829528809 23.85993385314941 10.14981937408447 C 24.76773262023926 9.527795791625977 25.70814514160156 8.932954788208008 26.67978668212891 8.366374015808105 C 27.65092849731445 7.800085544586182 28.64123153686523 7.269046783447266 29.64899826049805 6.773902893066406 C 30.65642738342285 6.278927326202393 31.68149375915527 5.819733142852783 32.72250747680664 5.396984577178955 C 33.76335525512695 4.974301338195801 34.82033920288086 4.587976455688477 35.89177322387695 4.238690376281738 C 36.96323394775391 3.889396667480469 38.04935455322266 3.577080726623535 39.1484489440918 3.302446126937866 C 40.28673934936523 3.018017292022705 41.42672348022461 2.777279376983643 42.56657791137695 2.580408334732056 C 43.70690155029297 2.383456945419312 44.84730911254883 2.230370998382568 45.98598480224609 2.121352195739746 C 47.12532424926758 2.012267827987671 48.26314163208008 1.947282552719116 49.39760208129883 1.926623582839966 C 50.53295135498047 1.905948758125305 51.66512680053711 1.929665207862854 52.79231643676758 1.998026847839355 C 53.92058944702148 2.066454887390137 55.0272216796875 2.178605556488037 56.11050415039062 2.334137916564941 C 57.19499588012695 2.489844560623169 58.25625991821289 2.689054727554321 59.29255294799805 2.931445121765137 C 60.33014678955078 3.174143552780151 61.34286880493164 3.460168600082397 62.32895278930664 3.789213180541992 C 63.31643676757812 4.118726253509521 64.27734375 4.491428852081299 65.20988464355469 4.907028675079346 C 66.11190795898438 5.309021949768066 66.97810363769531 5.746752262115479 67.80712890625 6.219388961791992 C 68.63750457763672 6.692788600921631 69.43067169189453 7.201251029968262 70.18527221679688 7.743950366973877 C 70.94116973876953 8.287572860717773 71.65845489501953 8.865599632263184 72.33570098876953 9.477197647094727 C 73.01418304443359 10.08989143371582 73.65256500244141 10.73633098602295 74.24944305419922 11.41568565368652 C 74.84745788574219 12.0963134765625 75.39632415771484 12.80144882202148 75.89520263671875 13.5298318862915 C 76.39502716064453 14.25959777832031 76.8447265625 15.01271820068359 77.24342346191406 15.78790855407715 C 77.64291381835938 16.56459426879883 77.99121856689453 17.36344909667969 78.28749847412109 18.18318557739258 C 78.58435821533203 19.00450897216797 78.82899475097656 19.8468017578125 79.02056884765625 20.70876121520996 C 79.21931457519531 21.60303115844727 79.35845947265625 22.50870704650879 79.43789672851562 23.42416572570801 C 79.51748657226562 24.34143257141113 79.53713226318359 25.26847839355469 79.49671173095703 26.20365333557129 C 79.45620727539062 27.1406307220459 79.35540008544922 28.08571624755859 79.19422912597656 29.03726005554199 C 79.03275299072266 29.99057769775391 78.8106689453125 30.95030784606934 78.52790832519531 31.91477394104004 C 78.24462127685547 32.88097381591797 77.90468597412109 33.83742141723633 77.50887298583984 34.78239440917969 C 77.11237335205078 35.72895431518555 76.65987396240234 36.66387939453125 76.15213775634766 37.58543014526367 C 75.64362335205078 38.50841903686523 75.07978057861328 39.41786956787109 74.46142578125 40.31203079223633 C 73.84220886230469 41.20746612548828 73.16842651367188 42.08744430541992 72.44093322753906 42.95023345947266 C 71.73746490478516 43.78452301025391 70.99156951904297 44.5938720703125 70.20477294921875 45.37686538696289 C 69.41712951660156 46.16068649291992 68.58863830566406 46.91796875 67.72085571289062 47.64728927612305 C 66.85228729248047 48.37726593017578 65.94450378417969 49.07912063598633 64.99909210205078 49.75143814086914 C 64.05300903320312 50.42424774169922 63.06940460205078 51.06736755371094 62.04989242553711 51.67939376831055 C 61.02982711791992 52.29176330566406 59.98684310913086 52.86520385742188 58.9229850769043 53.39881134033203 C 57.8587532043457 53.93260955810547 56.77385330200195 54.42644500732422 55.67034912109375 54.87943649291992 C 54.56667327880859 55.33251571655273 53.44459915161133 55.74464416503906 52.30622482299805 56.1149787902832 C 51.16788482666016 56.48529434204102 50.01347351074219 56.81375122070312 48.84506988525391 57.09950637817383 C 47.63552856445312 57.39532470703125 46.42448043823242 57.641845703125 45.21420669555664 57.8388786315918 C 44.00444412231445 58.03583526611328 42.79570770263672 58.18331909179688 41.59028244018555 58.28115463256836 C 40.38561630249023 58.37893676757812 39.18449020385742 58.42713165283203 37.98918533325195 58.42561721801758 C 36.79486846923828 58.42409515380859 35.60659408569336 58.37294769287109 34.4266357421875 58.27207183837891 Z M 52.302734375 3.498139619827271 C 47.9574089050293 3.231747388839722 43.59342575073242 3.68468713760376 39.41606903076172 4.729908466339111 C 35.24197387695312 5.77431058883667 31.24240112304688 7.413020133972168 27.62510299682617 9.523974418640137 C 24.00081634521484 11.63900947570801 20.75083541870117 14.23363590240479 18.08829307556152 17.18811225891113 C 15.41391181945801 20.15573310852051 13.32577323913574 23.49355888366699 12.0449857711792 27.08194923400879 C 10.75551223754883 30.69467735290527 10.40271759033203 34.22903060913086 10.87642288208008 37.5292854309082 C 11.35361480712891 40.85382843017578 12.66957950592041 43.9412727355957 14.71147155761719 46.62819290161133 C 16.76785659790039 49.33418273925781 19.55904197692871 51.63203048706055 22.9655818939209 53.3522834777832 C 26.39244842529297 55.08280181884766 30.43657875061035 56.22606658935547 34.96901321411133 56.61019134521484 C 39.51929092407227 56.99583435058594 44.12400436401367 56.57939147949219 48.54497909545898 55.49522018432617 C 52.96962356567383 54.41014099121094 57.19699859619141 52.65946197509766 60.99160385131836 50.38344955444336 C 64.77846527099609 48.1120719909668 68.12397003173828 45.32371520996094 70.79901123046875 42.16122817993164 C 73.46164703369141 39.01338195800781 75.45347595214844 35.50262069702148 76.55449676513672 31.77132034301758 C 77.64787292480469 28.06585502624512 77.75922393798828 24.49264335632324 77.03406524658203 21.2075080871582 C 76.31422424316406 17.9465160369873 74.77012634277344 14.9694652557373 72.54337310791016 12.42472076416016 C 70.33204650878906 9.897636413574219 67.44573974609375 7.794868946075439 64.01881408691406 6.2596755027771 C 60.61151123046875 4.733273983001709 56.66433715820312 3.76552939414978 52.302734375 3.498139619827271 Z" stroke="none" fill="#cfcfcf"/>
        </g>
        <path id="Ellipse_2" data-name="Ellipse 2" d="M39.482,1.583a26.7,26.7,0,0,1,9.329,2.227,19.4,19.4,0,0,1,6.743,4.931,15.615,15.615,0,0,1,3.5,6.993,16.788,16.788,0,0,1-.444,8.379,23,23,0,0,1-4.591,8.209A31.18,31.18,0,0,1,46.269,38.8a35.835,35.835,0,0,1-9.816,4.024,33.577,33.577,0,0,1-10.721.892,26.084,26.084,0,0,1-9.51-2.539,18.8,18.8,0,0,1-6.573-5.283A15.486,15.486,0,0,1,6.557,28.7a17.23,17.23,0,0,1,.878-8.306,23.671,23.671,0,0,1,4.773-7.9,31.558,31.558,0,0,1,7.583-6.123,35.872,35.872,0,0,1,9.4-3.824A33.778,33.778,0,0,1,39.482,1.583Z" transform="translate(11.109 7.161)" fill="#bcbcbc"/>
        <path id="Schnittmenge_1" data-name="Schnittmenge 1" d="M17.657,37.544l-1.648-.135a27.275,27.275,0,0,1-4.336-.969,23.415,23.415,0,0,1-3.812-1.564,20.256,20.256,0,0,1-3.237-2.087A17.823,17.823,0,0,1,2.007,30.25a24.21,24.21,0,0,1,3.136-1.827,26.377,26.377,0,0,1,3.386-1.364,29.446,29.446,0,0,1,3.594-.92,33.19,33.19,0,0,1,3.761-.494l.39-.026.389-.022.389-.018.388-.014.84-2.54c-.26-.148-.512-.3-.749-.447s-.456-.3-.65-.437a4.858,4.858,0,0,1-.5-.407,1.416,1.416,0,0,1-.286-.357,3.251,3.251,0,0,1-.291-.837,4.507,4.507,0,0,1-.074-.979c.007-.369.044-.79.1-1.29s.144-1.079.244-1.766a4.94,4.94,0,0,0,.009-1.19c-.038-.4-.1-.81-.159-1.233a9.012,9.012,0,0,1-.09-1.322,5.5,5.5,0,0,1,.216-1.458c.1-.359.229-.776.389-1.232a15.366,15.366,0,0,1,.6-1.474,13.4,13.4,0,0,1,.9-1.616A12.826,12.826,0,0,1,19.242,5.32,10.664,10.664,0,0,1,22.3,2.773a12.683,12.683,0,0,1,3.19-1.236,14.839,14.839,0,0,1,2.625-.392,11.6,11.6,0,0,1,1.352-.008l.035-.007a9.607,9.607,0,0,1,1.047.129,11.573,11.573,0,0,1,2.36.662,7.332,7.332,0,0,1,2.5,1.612A5.212,5.212,0,0,1,36.867,6.52a7.669,7.669,0,0,1,.18,1.773,9.96,9.96,0,0,1-.169,1.68,13.789,13.789,0,0,1-.369,1.5c-.14.462-.288.881-.419,1.241a7,7,0,0,1-.733,1.434,14.686,14.686,0,0,1-.942,1.259c-.327.4-.655.782-.951,1.162a7.4,7.4,0,0,0-.759,1.144c-.346.674-.639,1.242-.9,1.73s-.5.9-.73,1.252a7.35,7.35,0,0,1-.7.928,6.368,6.368,0,0,1-.819.758,2.976,2.976,0,0,1-.517.305c-.217.105-.473.214-.759.323s-.6.219-.929.328-.677.217-1.029.321L25.5,26.178l.378.075.376.079.374.083.372.087a24.794,24.794,0,0,1,3.336,1.056,18.713,18.713,0,0,1,2.909,1.455,14.51,14.51,0,0,1,2.422,1.866,12.208,12.208,0,0,1,1.875,2.29,35.855,35.855,0,0,1-4.177,1.992,36.2,36.2,0,0,1-4.454,1.456,35.2,35.2,0,0,1-4.634.865,33.265,33.265,0,0,1-4.716.221Z" transform="translate(18.89 12.978)" fill="#555"/>
        <path id="Pfad_3" data-name="Pfad 3" d="M.594,0,0,1.78Z" transform="translate(37.768 21.649)" fill="#f1ecc1"/>
      </g>
    </g>
  </g>
</svg>
