<svg xmlns="http://www.w3.org/2000/svg" width="25" height="14.788" viewBox="0 0 25 14.788">
    <g id="SVGRepoiconCarrier" transform="translate(-2.275 -5.5)">
        <g id="-System-Icons" data-name="ðŸ”-System-Icons" transform="translate(2.275 5.5)">
            <g id="ic_fluent_eye_show_24regular">
                <path id="-Color" data-name="ðŸŽ¨-Color" d="M14.776,10a5.142,5.142,0,1,1-5.142,5.142A5.142,5.142,0,0,1,14.776,10Zm0,1.928a3.214,3.214,0,1,0,3.214,3.214A3.214,3.214,0,0,0,14.776,11.933Zm0-6.433a12.859,12.859,0,0,1,12.47,9.724.964.964,0,1,1-1.87.468,10.93,10.93,0,0,0-21.2.006A.964.964,0,0,1,2.3,15.23,12.859,12.859,0,0,1,14.776,5.5Z" transform="translate(-2.275 -5.5)" fill="#fff"/>
            </g>
        </g>
    </g>
</svg>