<svg xmlns="http://www.w3.org/2000/svg" xmlns:xlink="http://www.w3.org/1999/xlink" width="1920" height="283.814" viewBox="0 0 1920 283.814">
  <defs>
    <linearGradient id="linear-gradient" x1="0.453" x2="0.462" y2="0.569" gradientUnits="objectBoundingBox">
      <stop offset="0" stop-color="#6b54ad"/>
      <stop offset="1" stop-color="#362a57"/>
    </linearGradient>
    <linearGradient id="linear-gradient-2" x1="0.5" x2="0.5" y2="1" gradientUnits="objectBoundingBox">
      <stop offset="0" stop-color="#362365"/>
      <stop offset="0" stop-color="#544081"/>
      <stop offset="1" stop-color="#1b1233"/>
    </linearGradient>
    <linearGradient id="linear-gradient-3" x1="0.5" y1="0.587" x2="0.5" y2="-0.236" gradientUnits="objectBoundingBox">
      <stop offset="0" stop-color="#3e1a0a"/>
      <stop offset="1" stop-color="#7e665b"/>
    </linearGradient>
    <linearGradient id="linear-gradient-4" x1="-0.187" y1="-0.176" x2="0.83" y2="0.446" gradientUnits="objectBoundingBox">
      <stop offset="0" stop-color="#523a8b"/>
      <stop offset="1" stop-color="#291d46"/>
    </linearGradient>
    <filter id="Union_2" x="502.504" y="155.234" width="101.297" height="119.402" filterUnits="userSpaceOnUse">
      <feOffset dy="6" input="SourceAlpha"/>
      <feGaussianBlur stdDeviation="3" result="blur"/>
      <feFlood flood-opacity="0.161"/>
      <feComposite operator="in" in2="blur"/>
      <feComposite in="SourceGraphic"/>
    </filter>
    <linearGradient id="linear-gradient-5" x1="0.546" y1="0.621" x2="0.428" y2="0.646" gradientUnits="objectBoundingBox">
      <stop offset="0" stop-color="#af8a6a"/>
      <stop offset="1" stop-color="#584535"/>
    </linearGradient>
    <linearGradient id="linear-gradient-6" x1="0.613" y1="0.842" x2="0.602" y2="0.04" gradientUnits="objectBoundingBox">
      <stop offset="0" stop-color="#f9ffa7"/>
      <stop offset="1" stop-color="#7d8054"/>
    </linearGradient>
    <linearGradient id="linear-gradient-7" x1="0.184" y1="0.279" x2="0.841" y2="0.525" gradientUnits="objectBoundingBox">
      <stop offset="0" stop-color="#6b5698"/>
      <stop offset="1" stop-color="#362b4c"/>
    </linearGradient>
    <linearGradient id="linear-gradient-8" x1="0.328" x2="0.628" y2="1.23" gradientUnits="objectBoundingBox">
      <stop offset="0" stop-color="#9e9e9e"/>
      <stop offset="1" stop-color="#4f4f4f"/>
    </linearGradient>
    <linearGradient id="linear-gradient-9" x1="0.208" x2="0.429" y2="0.331" gradientUnits="objectBoundingBox">
      <stop offset="0" stop-color="#8b72c2"/>
      <stop offset="1" stop-color="#463961"/>
    </linearGradient>
  </defs>
  <g id="tisch" transform="translate(-80 -825)">
    <path id="Path_38" data-name="Path 38" d="M960,0c530.193,0,960,126.257,960,282H0C0,126.257,429.807,0,960,0Z" transform="translate(80 825)" fill="url(#linear-gradient)"/>
    <g id="tasse" transform="translate(591.164 965.501)">
      <path id="Pfad_22" data-name="Pfad 22" d="M6.167,10s37.856,3.647,52.841,10.927S74.761,35.885,69.422,40.765c-8.09,7.395-34.561,10.087-58.33,8.757S-28.968,33.8-28.968,33.8Z" transform="translate(38.387 79.564) rotate(7)" fill="#312848"/>
      <path id="Subtraction_1" data-name="Subtraction 1" d="M15.185,44.81C8.776,44.81,3,39.481.473,31.235c2.445,4.491,6.6,7.171,11.112,7.171,7.28,0,13.2-7,13.2-15.6S18.865,7.2,11.585,7.2C6.761,7.2,2.321,10.31,0,15.314A23.417,23.417,0,0,1,5.737,4.32,13.141,13.141,0,0,1,15.185,0a12.1,12.1,0,0,1,6.229,1.761,16.893,16.893,0,0,1,5.087,4.8,27.387,27.387,0,0,1,4.688,15.843A27.4,27.4,0,0,1,26.5,38.248a16.893,16.893,0,0,1-5.087,4.8,12.1,12.1,0,0,1-6.229,1.761Z" transform="translate(69.46 43.034)" fill="#291d46"/>
      <g id="Ellipse_3" data-name="Ellipse 3" transform="translate(0.34 0.349)" stroke="#452c82" stroke-width="1" fill="url(#linear-gradient-2)">
        <ellipse cx="41.286" cy="17.746" rx="41.286" ry="17.746" stroke="none"/>
        <ellipse cx="41.286" cy="17.746" rx="40.786" ry="17.246" fill="none"/>
      </g>
      <ellipse id="Ellipse_25" data-name="Ellipse 25" cx="41.286" cy="16.659" rx="41.286" ry="16.659" transform="translate(0.34 17.733)" fill="url(#linear-gradient-3)"/>
      <g transform="matrix(1, 0, 0, 1, -511.16, -140.5)" filter="url(#Union_2)">
        <path id="Union_2-2" data-name="Union 2" d="M0,83.442q0-.2.01-.4H0V0S1.659,16.706,41.71,16.706,83.3,0,83.3,0V83.04h-.01q.01.2.01.4c0,9.923-18.647,17.963-41.648,17.963S0,93.365,0,83.442Z" transform="translate(511.5 158.23)" fill="url(#linear-gradient-4)"/>
      </g>
    </g>
    <path id="Path_28" data-name="Path 28" d="M12.8,38.813,137.216,0l-6.5,89.163L0,106.918Z" transform="matrix(0.454, 0.891, -0.891, 0.454, 1611.667, 926.428)" fill="#4b3a75"/>
    <path id="Path_29" data-name="Path 29" d="M36.322,54.986,141.689,0l-17.32,67.424L0,105.449Z" transform="matrix(0.454, 0.891, -0.891, 0.454, 1676.852, 907.647)" fill="#3f2f67"/>
    <text id="PIZZA" transform="translate(1537.201 981.735) rotate(11.604)" fill="#fff" font-size="15" font-family="Bungee-Regular, Bungee" opacity="0.31"><tspan x="0" y="0">PIZZA</tspan></text>
    <text id="PIZZA-2" data-name="PIZZA" transform="translate(1568.458 995.842) rotate(11.604)" fill="#fff" font-size="7" font-family="Bungee-Regular, Bungee" opacity="0.31"><tspan x="0" y="0">PIZZA</tspan></text>
    <text id="Pizza_Margherita._Pizza_Marinara._Pizza_Prosciutto_e_funghi._Pizza_Quattro_Stagioni._Pizza_Capricciosa._Pizza_Communista._Pizza_Vegetariana._Pizza_Cur" data-name="Pizza Margherita. Pizza Marinara. Pizza Prosciutto e funghi. Pizza Quattro Stagioni. Pizza Capricciosa. Pizza Communista. Pizza Vegetariana. Pizza Cur" transform="translate(1561.965 1022.112) rotate(-31.938)" fill="#fff" font-size="2" font-family="Bungee-Regular, Bungee" opacity="0.32"><tspan x="0" y="0">Pizza Margherita.</tspan><tspan x="0" y="4">Pizza Marinara.</tspan><tspan x="0" y="8">Pizza Prosciutto e funghi.</tspan><tspan x="0" y="12">Pizza Quattro Stagioni.</tspan><tspan x="0" y="16">Pizza Capricciosa.</tspan><tspan x="0" y="20">Pizza Communista.</tspan><tspan x="0" y="24">Pizza Vegetariana.</tspan><tspan x="0" y="28">Pizza Curview.</tspan></text>
    <path id="Path_106" data-name="Path 106" d="M-1.584,15.935,126.791,7.261l45.655,17.292H25.19Z" transform="translate(341.073 1029.349)" fill="#2d2d2d" opacity="0.3"/>
    <g id="Group_7" data-name="Group 7" transform="translate(304.245 939.833)">
      <path id="Path_89" data-name="Path 89" d="M0,4.149,4.319,0,57.584,141.04,54.5,149.38l-9.9-6.615Z" transform="translate(81.133 42.114) rotate(-47)" fill="url(#linear-gradient-5)"/>
      <path id="Path_90" data-name="Path 90" d="M-34.459,41.2V25.411L66.246,41.2l68.818,23.048v16.31H4.918Z" transform="translate(34.459 25.978)" fill="#abb164"/>
      <path id="Path_91" data-name="Path 91" d="M-34.459,34.189H66.246L135.064,73.55H4.918Z" transform="translate(34.459 16.802)" fill="#bbbca0"/>
      <path id="Path_92" data-name="Path 92" d="M-34.459,34.189H66.246l65.8,40.763L4.918,73.55Z" transform="translate(34.459 15.003)" fill="#dde29d"/>
      <path id="Path_93" data-name="Path 93" d="M-27.133,25.771H73.573s.633,13.816,15.762,26.653S129.22,80.271,129.22,80.271H-.927S-14.45,67.2-21,53.57a67.147,67.147,0,0,1-6.133-27.8Z" transform="translate(40.303 10.081)" fill="url(#linear-gradient-6)"/>
      <path id="Path_94" data-name="Path 94" d="M9.109.346l5.712,9.031L1.7,10.951V7.7l.672-4.091,3.58-2.447Z" transform="translate(214.383 95.885)" fill="#e5b58b"/>
      <path id="Path_95" data-name="Path 95" d="M1.024,0l2.54,3.912L0,4.15Z" transform="translate(231.006 104.837) rotate(123.007)" fill="#484646"/>
    </g>
    <g id="handy" transform="translate(1281.34 876.328)">
      <path id="Path_98" data-name="Path 98" d="M-50.537,17.96V12.709L.875,17.96,80.329,66.046V71.5H11.922Z" transform="translate(50.537 -12.437)" fill="#101010"/>
      <path id="Path_97" data-name="Path 97" d="M-50.537,17.462H.875L80.329,71H11.922Z" transform="translate(50.537 -17.462)" fill="#1c1c1c"/>
      <path id="Path_102" data-name="Path 102" d="M-48.774,18.291H-4.018L63.2,63.982H3.652Z" transform="translate(58.825 -13.76)" fill="#373737"/>
      <path id="Path_99" data-name="Path 99" d="M.07,0H6.7L5.96,1.314H-.668Z" transform="translate(73.435 55.83)" fill="#232222"/>
      <path id="Path_101" data-name="Path 101" d="M.07,0H6.7l.224.19L5.96,1.314l-6.512.171-.117-.171Z" transform="translate(73.435 55.83)" fill="#171717"/>
      <path id="Path_100" data-name="Path 100" d="M.191.154H6.906L6.168,1.468H-.547Z" transform="translate(73.448 55.846)" fill="#232222"/>
      <path id="Path_104" data-name="Path 104" d="M1.657,0h8.838c.915,0,2.753,1.726,2.753,2.642s-1.838.673-2.753.673l-8.063.943C1.517,4.257,0,2.572,0,1.657A1.657,1.657,0,0,1,1.657,0Z" transform="translate(95.599 54.725)" fill="#fff"/>
      <rect id="Rectangle_34" data-name="Rectangle 34" width="12" height="3" rx="1.5" transform="translate(96.66 56.375)" fill="#d8d8d8"/>
      <path id="Path_103" data-name="Path 103" d="M.241,1.229S22,21.684,30.846,39.945s5.142,27.832,20.461,51.636,43.952,35.84,54.017,50.161c7.911,11.256,6.663,18.351,8.161,23.385l2.5,9" transform="translate(102.805 56.511)" fill="none" stroke="#fff" stroke-linecap="round" stroke-width="3"/>
      <path id="Path_105" data-name="Path 105" d="M1.511,0a1.785,1.785,0,0,1,1.8,1.653,1.792,1.792,0,0,1-1.8,1.661A1.542,1.542,0,0,1,0,1.657,1.535,1.535,0,0,1,1.511,0Z" transform="translate(123.217 54.725)"/>
    </g>
    <g id="dose" transform="translate(1048 755)">
      <path id="Pfad_21" data-name="Pfad 21" d="M9.67,12.894S57.735-.256,65.938,4.909s9.888,17.779,5.7,27S57.118,54.128,43.508,57.437-31.527,48.4-31.527,48.4Z" transform="matrix(0.875, 0.485, -0.485, 0.875, 790.144, 263.262)" fill="#312848"/>
      <path id="Pfad_2" data-name="Pfad 2" d="M0,0H67l-.953,5.367L67,9.25s.53,120.187,0,122.214-6.97,10.65-34.145,10.65S.551,133.686,0,131.464,0,9.25,0,9.25L.986,5.367Z" transform="translate(737 154)" fill="url(#linear-gradient-7)"/>
      <ellipse id="Ellipse_3-2" data-name="Ellipse 3" cx="33.5" cy="10.5" rx="33.5" ry="10.5" transform="translate(737 143)" fill="#8a8a8a"/>
      <ellipse id="Ellipse_1" data-name="Ellipse 1" cx="30.5" cy="8" rx="30.5" ry="8" transform="translate(740 147)" fill="url(#linear-gradient-8)"/>
      <path id="Pfad_1" data-name="Pfad 1" d="M9,0c4.971,0,9,2.239,9,5s-2.817,4.231-7.788,4.231S0,7.761,0,5,4.029,0,9,0Z" transform="translate(754.329 155.123) rotate(-9)" fill="#2d2d2d"/>
      <g id="Ellipse_2" data-name="Ellipse 2" transform="translate(737 143)" fill="none" stroke="#b4b4b4" stroke-width="2">
        <ellipse cx="33.5" cy="10.5" rx="33.5" ry="10.5" stroke="none"/>
        <ellipse cx="33.5" cy="10.5" rx="32.5" ry="9.5" fill="none"/>
      </g>
      <path id="Differenzmenge_1" data-name="Differenzmenge 1" d="M8.252,18.164l-3.67-1.489a4.88,4.88,0,0,1-1.635-1.088A4.968,4.968,0,0,1,1.891,14a5.011,5.011,0,0,1-.02-3.817L4.116,4.631A5.009,5.009,0,0,1,8.641,1.492a4.88,4.88,0,0,1,1.932.353l3.674,1.479a4.887,4.887,0,0,1,1.641,1.085,4.967,4.967,0,0,1,1.061,1.584,5.008,5.008,0,0,1,.024,3.824l-2.25,5.569a5.006,5.006,0,0,1-4.537,3.137A4.887,4.887,0,0,1,8.252,18.164Zm.787-7.235q-.14-.056-.283-.1a2.912,2.912,0,0,0-.878-.117q-.144,0-.287.02t-.282.047q-.14.03-.277.074t-.27.1q-.134.057-.26.127t-.245.15q-.119.081-.229.173t-.213.2q-.106.107-.2.224t-.176.241q-.082.125-.151.257t-.126.273q-.057.14-.1.284t-.07.29q-.028.147-.041.3t-.011.3q0,.146.017.289T5,14.339q.029.141.072.278t.1.271q.056.134.123.261t.147.246q.079.119.17.23t.193.214q.106.106.221.2a2.93,2.93,0,0,0,.493.327,2.987,2.987,0,0,0,.551.223,2.925,2.925,0,0,0,.581.108q.148.012.3.01t.287-.019q.142-.017.282-.047t.277-.074q.137-.044.271-.1t.26-.126q.126-.069.245-.15t.23-.173q.111-.092.213-.2t.2-.223a2.979,2.979,0,0,0,.176-.241q.082-.125.152-.258t.127-.274q.057-.141.1-.285t.07-.291a2.981,2.981,0,0,0,.041-.3q.013-.149.011-.3t-.018-.289q-.016-.143-.045-.284t-.072-.279q-.043-.138-.1-.272t-.125-.261q-.068-.127-.148-.246t-.17-.23q-.091-.111-.193-.213a2.936,2.936,0,0,0-.22-.2,2.911,2.911,0,0,0-.493-.327Q9.178,10.986,9.038,10.929ZM9.824,3.7a1.953,1.953,0,0,0-.773-.142,1.988,1.988,0,0,0-.744.162A2,2,0,0,0,7.24,4.813l-.375.927A2,2,0,0,0,7.3,7.9a1.952,1.952,0,0,0,.655.434l3.673,1.483a1.955,1.955,0,0,0,.774.143,1.99,1.99,0,0,0,.745-.162A2,2,0,0,0,14.212,8.7l.375-.929a2,2,0,0,0-.433-2.162,1.954,1.954,0,0,0-.656-.434Z" transform="translate(763.126 136.986)" fill="#b4b4b4"/>
      <path id="Pfad_3" data-name="Pfad 3" d="M0,0S8.72,7.09,32.575,7.09,64,0,64,0" transform="translate(738.5 159.5)" fill="none" stroke="#50436d" stroke-width="1"/>
      <path id="Pfad_5" data-name="Pfad 5" d="M0,0,11,7.573,26.936,8.688,43.829,1.676,67,0V42.952S64.706,52.674,31.671,53,0,42.952,0,42.952Z" transform="translate(737 243)" fill="url(#linear-gradient-9)"/>
      <text id="_" data-name="?" transform="translate(749 171)" fill="#fff" font-size="42" font-family="Bungee-Regular, Bungee" opacity="0.79"><tspan x="0" y="69">?</tspan></text>
      <path id="Pfad_4" data-name="Pfad 4" d="M0,0S7.022,6.935,23.772,6.935c4.69,0,9.665-5.867,20.472-7.6S67,0,67,0,52.213,2.276,44.245,3.625s-8.459,9.072-24.028,7.6S0,0,0,0Z" transform="translate(737 243)" fill="#fff"/>
    </g>
  </g>
</svg>
