<svg xmlns="http://www.w3.org/2000/svg" width="1840.838" height="338.025" viewBox="0 0 1840.838 338.025">
    <g id="Pfad_1" data-name="Pfad 1" transform="translate(-3.831)" fill="#8204ff">
        <path d="M 1644.447875976563 337.5244445800781 C 1511.151733398438 337.5246887207031 1337.378051757813 335.4767150878906 1184.060546875 333.6698913574219 C 1074.915771484375 332.383544921875 980.6550903320313 331.2726440429688 929.0001220703125 331.2726440429688 C 896.4339599609375 331.2726440429688 823.1307983398438 331.557861328125 730.3258056640625 331.9192199707031 C 577.4773559570313 332.5140075683594 368.1441955566406 333.3287658691406 214.6321411132813 333.3287658691406 C 150.2066802978516 333.3287658691406 99.98055267333984 333.1833190917969 65.34941101074219 332.896484375 C 46.25622940063477 332.7383117675781 31.42600440979004 332.5335388183594 21.27054977416992 332.2878723144531 C 15.97645854949951 332.159912109375 11.83918571472168 332.0178527832031 8.973276138305664 331.8660278320313 C 5.854530811309814 331.7007751464844 4.733518123626709 331.5470581054688 4.331813812255859 331.4606628417969 C 4.345160484313965 325.4154663085938 4.746440410614014 319.330322265625 5.525094985961914 313.3685302734375 C 6.311003684997559 307.3503723144531 7.503049373626709 301.2926330566406 9.068276405334473 295.36376953125 C 12.16577625274658 283.6296691894531 16.84645843505859 271.9305725097656 22.98054885864258 260.5914916992188 C 29.03327751159668 249.4030914306641 36.6528205871582 238.2837677001953 45.62759399414063 227.5426330566406 C 54.49350357055664 216.9317169189453 64.90259552001953 206.4258117675781 76.56577301025391 196.3162689208984 C 88.10145568847656 186.3171844482422 101.1487274169922 176.459228515625 115.3450927734375 167.0160369873047 C 129.4055480957031 157.6633148193359 144.9380493164063 148.4880828857422 161.5110015869141 139.745361328125 C 177.9510040283203 131.0728607177734 195.8153228759766 122.6146774291992 214.6075897216797 114.605583190918 C 233.2807769775391 106.6474075317383 253.3230438232422 98.93967437744141 274.1775817871094 91.69649505615234 C 294.9380493164063 84.48626708984375 317.004638671875 77.56240844726563 339.764404296875 71.11717987060547 C 362.465087890625 64.68876647949219 386.4023742675781 58.58172225952148 410.9112243652344 52.9655876159668 C 460.031005859375 41.70990371704102 512.9032592773438 32.07763290405273 568.0596313476563 24.33626937866211 C 623.5809936523438 16.54354095458984 682.093505859375 10.5724048614502 741.971923828125 6.588541507720947 C 802.695068359375 2.548314094543457 865.6203002929688 0.4999050199985504 929.0001220703125 0.4999050199985504 C 992.3703002929688 0.4999050199985504 1055.158325195313 2.548314094543457 1115.619873046875 6.588541507720947 C 1175.2216796875 10.57104110717773 1233.372192382813 16.54240417480469 1288.455810546875 24.33626937866211 C 1343.142333984375 32.07399749755859 1395.502563476563 41.7060432434082 1444.082153320313 52.96535873413086 C 1468.306884765625 58.57967758178711 1491.955322265625 64.68672180175781 1514.37060546875 71.11672210693359 C 1536.831909179688 77.55990600585938 1558.600341796875 84.48377227783203 1579.071044921875 91.69581604003906 C 1599.622192382813 98.93649291992188 1619.3662109375 106.6439971923828 1637.754638671875 114.6044540405273 C 1656.248291015625 122.6105880737305 1673.82373046875 131.0687713623047 1689.992309570313 139.7437744140625 C 1706.28125 148.4830932617188 1721.54345703125 157.6580810546875 1735.355834960938 167.0137634277344 C 1749.291625976563 176.4533081054688 1762.09716796875 186.31103515625 1773.416015625 196.3130798339844 C 1784.852172851563 206.4187622070313 1795.05712890625 216.9246826171875 1803.746948242188 227.5387725830078 C 1812.537841796875 238.2762756347656 1820.000122070313 249.3955841064453 1825.926635742188 260.587646484375 C 1831.928955078125 271.9233093261719 1836.508911132813 283.6228637695313 1839.538940429688 295.3612670898438 C 1841.069213867188 301.2894592285156 1842.234619140625 307.347412109375 1843.003051757813 313.3671875 C 1843.769897460938 319.3740539550781 1844.162231445313 325.5073547363281 1844.169555664063 331.5994567871094 C 1844.05517578125 331.7061767578125 1843.768920898438 331.9027709960938 1843.071899414063 332.1426391601563 C 1842.3232421875 332.4005737304688 1841.261474609375 332.6537780761719 1839.916015625 332.8953552246094 C 1837.243286132813 333.3753662109375 1833.365356445313 333.8240051269531 1828.390380859375 334.2292175292969 C 1818.822875976563 335.0080871582031 1804.804809570313 335.65673828125 1786.725830078125 336.1569519042969 C 1753.928955078125 337.064208984375 1706.059814453125 337.5244445800781 1644.447875976563 337.5244445800781 Z" stroke="none"/>
        <path d="M 929.0001220703125 0.999908447265625 C 865.6314697265625 0.999908447265625 802.7171630859375 3.048095703125 742.005126953125 7.08740234375 C 682.138671875 11.07058715820313 623.6383056640625 17.04037475585938 568.12890625 24.83148193359375 C 512.9866943359375 32.57080078125 460.1287841796875 42.20059204101563 411.0228271484375 53.45285034179688 C 386.5220947265625 59.06716918945313 362.59326171875 65.17218017578125 339.9005126953125 71.59832763671875 C 317.150146484375 78.04080200195313 295.0927734375 84.96173095703125 274.3416748046875 92.16899108886719 C 253.497802734375 99.4080810546875 233.4664306640625 107.1117248535156 214.803466796875 115.0655822753906 C 196.023681640625 123.0692291259766 178.172119140625 131.5214996337891 161.744384765625 140.1876373291016 C 145.186279296875 148.9224090576172 129.66845703125 158.0889892578125 115.6219482421875 167.4324035644531 C 101.4429931640625 176.86376953125 88.412841796875 186.7087707519531 76.893310546875 196.6940002441406 C 65.2503662109375 206.7860412597656 54.860107421875 217.2728576660156 46.01123046875 227.8633117675781 C 37.057861328125 238.5789947509766 29.4571533203125 249.6703491210938 23.4202880859375 260.8294677734375 C 17.3050537109375 272.1337585449219 12.638916015625 283.7955932617188 9.5516357421875 295.4914855957031 C 7.991943359375 301.3996887207031 6.80419921875 307.436279296875 6.020751953125 313.4333190917969 C 5.262939453125 319.2365112304688 4.8638916015625 325.1565551757813 4.8333740234375 331.0427551269531 C 6.09033203125 331.2219543457031 9.975341796875 331.5206298828125 21.8369140625 331.80126953125 C 32.0811767578125 332.0437622070313 46.94189453125 332.2458190917969 66.0057373046875 332.4019470214844 C 100.60302734375 332.6851196289063 150.6082763671875 332.8287658691406 214.632080078125 332.8287658691406 C 368.143310546875 332.8287658691406 577.475830078125 332.0140075683594 730.32373046875 331.4192199707031 C 823.12939453125 331.057861328125 896.4328002929688 330.7726440429688 929.0001220703125 330.7726440429688 C 980.6598510742188 330.7726440429688 1074.927124023438 331.883544921875 1184.07958984375 333.1698913574219 C 1337.391479492188 334.9767150878906 1511.15869140625 337.0244445800781 1644.44775390625 337.0244445800781 C 1705.40869140625 337.0244445800781 1752.920288085938 336.5740051269531 1785.6630859375 335.6858215332031 C 1803.692626953125 335.1967163085938 1817.755737304688 334.5628662109375 1827.462646484375 333.8017272949219 C 1832.500122070313 333.40673828125 1836.4677734375 332.9694519042969 1839.255737304688 332.5024108886719 C 1842.254272460938 331.9999389648438 1843.31298828125 331.5546875 1843.669067382813 331.3471374511719 C 1843.6513671875 325.3588562011719 1843.260620117188 319.3335266113281 1842.507080078125 313.4303588867188 C 1841.741455078125 307.4314880371094 1840.579833984375 301.3942260742188 1839.054809570313 295.4862670898438 C 1836.034423828125 283.7855834960938 1831.468994140625 272.1228637695313 1825.484619140625 260.8217163085938 C 1819.57373046875 249.6587677001953 1812.1298828125 238.5674133300781 1803.360107421875 227.8555908203125 C 1794.687133789063 217.2621765136719 1784.5009765625 206.7758178710938 1773.084838867188 196.6878662109375 C 1761.781860351563 186.6996765136719 1748.993774414063 176.8553619384766 1735.075317382813 167.4276275634766 C 1721.27734375 158.0817260742188 1706.029663085938 148.9155883789063 1689.755981445313 140.1842193603516 C 1673.599609375 131.5158081054688 1656.036865234375 123.0639953613281 1637.556030273438 115.0633087158203 C 1619.17822265625 107.1074066162109 1599.445068359375 99.40422058105469 1578.904907226563 92.16740417480469 C 1558.443481445313 84.95852661132813 1536.6845703125 78.03787231445313 1514.232666015625 71.597412109375 C 1491.825805664063 65.16989135742188 1468.185791015625 59.06491088867188 1443.96923828125 53.452392578125 C 1395.403686523438 42.19650268554688 1343.05810546875 32.56695556640625 1288.3857421875 24.83126831054688 C 1233.314208984375 17.03921508789063 1175.176025390625 11.0692138671875 1115.58642578125 7.08740234375 C 1055.135986328125 3.048095703125 992.3591918945313 0.999908447265625 929.0001220703125 0.999908447265625 M 929.0001220703125 -9.1552734375e-05 C 1442.072631835938 -9.1552734375e-05 1844.669677734375 132.6739959716797 1844.669677734375 331.7726440429688 C 1841.925170898438 336.4612731933594 1759.674682617188 338.0245361328125 1644.44775390625 338.0245361328125 C 1413.972778320313 338.0245361328125 1051.504272460938 331.7726440429688 929.0001220703125 331.7726440429688 C 841.831787109375 331.7726440429688 459.7000732421875 333.8287048339844 214.632080078125 333.8287048339844 C 92.07568359375 333.8287048339844 3.8314208984375 333.3148803710938 3.8314208984375 331.7726440429688 C 3.8314208984375 132.6739959716797 415.9273681640625 -9.1552734375e-05 929.0001220703125 -9.1552734375e-05 Z" stroke="none" fill="#707070"/>
    </g>
</svg>