<svg xmlns="http://www.w3.org/2000/svg" width="29.898" height="23.988" viewBox="0 0 29.898 23.988">
    <g id="Gruppe_1" data-name="Gruppe 1" transform="translate(0 0)">
        <path id="Linie_2" d="M0,20.156V0" transform="translate(19.28 1.953)" fill="none" stroke="#594a9e" stroke-linecap="round" stroke-width="2"/>
        <path id="Linie_2-2" data-name="Linie_2" d="M0,20.156S2.618,16.64,2.618,9.872,0,0,0,0" transform="translate(26.28 2.306)" fill="none" stroke="#594a9e" stroke-linecap="round" stroke-width="2"/>
        <path id="Linie_2-3" data-name="Linie_2" d="M0,13.6A11.7,11.7,0,0,0,1.9,6.65C1.9,2.083,0,0,0,0" transform="translate(23.28 5.584)" fill="none" stroke="#594a9e" stroke-linecap="round" stroke-width="2"/>
        <line id="Linie_2-4" data-name="Linie_2" x2="8.527" transform="translate(1 15.457)" fill="none" stroke="#594a9e" stroke-linecap="round" stroke-width="2"/>
        <path id="Linie_2-5" data-name="Linie_2" d="M0,0H8.527" transform="translate(1 8.604)" fill="none" stroke="#594a9e" stroke-linecap="round" stroke-width="2"/>
        <path id="Linie_2-6" data-name="Linie_2" d="M0,0H6.853" transform="translate(1 8.604) rotate(90)" fill="none" stroke="#594a9e" stroke-linecap="round" stroke-width="2"/>
        <line id="Linie_2-7" data-name="Linie_2" y1="7.206" x2="9.797" transform="translate(9.527 1.398)" fill="none" stroke="#594a9e" stroke-linecap="round" stroke-width="2"/>
        <line id="Linie_2-8" data-name="Linie_2" x2="9.797" y2="7.206" transform="translate(9.527 15.384)" fill="none" stroke="#594a9e" stroke-linecap="round" stroke-width="2"/>
    </g>
</svg>
