<svg xmlns="http://www.w3.org/2000/svg" width="129" height="154.361" viewBox="0 0 129 154.361">
  <g id="Group_2" data-name="Group 2" transform="translate(-37 -7)">
    <path id="Subtraction_1" data-name="Subtraction 1" d="M41.137,154.361h0a84.1,84.1,0,0,1-9.182-13.451,98.718,98.718,0,0,1-6.974-15.849,110.8,110.8,0,0,1-4.43-17.789A119.621,119.621,0,0,1,19,88a115.549,115.549,0,0,1,5.069-34.254A94.382,94.382,0,0,1,37.891,25.775a74.584,74.584,0,0,1,9.546-10.746A61.872,61.872,0,0,1,58.394,6.916a49.031,49.031,0,0,1,50.213,0,61.871,61.871,0,0,1,10.956,8.114,74.582,74.582,0,0,1,9.546,10.746,94.382,94.382,0,0,1,13.823,27.972A115.55,115.55,0,0,1,148,88a119.625,119.625,0,0,1-1.536,19.174,110.9,110.9,0,0,1-4.387,17.71,98.919,98.919,0,0,1-6.907,15.8,84.392,84.392,0,0,1-9.1,13.429A132.5,132.5,0,0,0,102,149.046V134.084c7.062-3.427,11.382-6.169,12.84-8.149,4.057-5.508,5.022-10.657,7.458-26.1a50.226,50.226,0,0,1,3.475-10.76c2.14-5.282,4.352-10.743,4.6-17.415s.776-20.518-5.387-33.977C115.4,12.721,89.247,11.457,84.1,11.457c-.335,0-.564.006-.67.009s-.335-.009-.67-.009c-5.145,0-31.294,1.264-40.888,26.222C35.709,51.141,36.235,65,36.488,71.655s2.464,12.134,4.6,17.416a50.228,50.228,0,0,1,3.475,10.759c2.436,15.446,3.4,20.595,7.458,26.1,1.468,1.993,5.834,4.756,12.974,8.213v15.02a131.332,131.332,0,0,0-23.862,5.193Z" transform="translate(18 7)"/>
    <path id="Path_5" data-name="Path 5" d="M28.4,25.355C41.175,8.486,70.5,0,70.5,0V16.263s1.173,7.747-9.867,14.474c-5.984,3.646-12.954,3.7-23.611,10.762S23.577,73.056,21.75,70.133,15.629,42.225,28.4,25.355Z" transform="translate(31 7)"/>
    <path id="Path_6" data-name="Path 6" d="M62.153,32.848C49.38,10.994,20.056,0,20.056,0V21.069S18.883,31.1,29.923,39.819c5.984,4.723,12.954,4.791,23.611,13.942s12.6,37.681,14.429,33.895S74.927,54.7,62.153,32.848Z" transform="translate(81 7)"/>
  </g>
</svg>
