<svg xmlns="http://www.w3.org/2000/svg" width="129.966" height="162.244" viewBox="0 0 129.966 162.244">
  <g id="long_hair_woman" data-name="long hair woman" transform="translate(-36.336 -5.844)">
    <path id="Union_1" data-name="Union 1" d="M6.785,162.244h0s0-.014-.007-.033c-.224-1.032-1.414-6.6-2.757-14.953-1.355-8.43-3.15-21.509-4-35.942C-.936,95.094-.529,80.5,1.229,67.951A114.938,114.938,0,0,1,5.8,47.714,65.787,65.787,0,0,1,14.095,30.7C21.055,20.781,29.013,13.08,37.75,7.806A55.875,55.875,0,0,1,50.882,1.967,48.1,48.1,0,0,1,64.392,0,49.211,49.211,0,0,1,90.253,7.555c8.588,5.234,16.4,13.019,23.233,23.142a75.87,75.87,0,0,1,8.622,17.783,124.379,124.379,0,0,1,5,20.6,224.584,224.584,0,0,1,2.181,43.239,352.313,352.313,0,0,1-3.163,35.318c-1.243,8.857-2.4,14.555-2.409,14.612l-30-10.468h-.143a155.573,155.573,0,0,0-15.39-2.705V133.025c.6-.691,1.3-1.492,2.116-2.449l.258-.3c8.23-9.6,14.175-16.544,18.743-26.252,1.641-3.488,3.227-6.476,4.762-9.364,4.014-7.555,7.184-13.524,7.5-21.847.252-6.66.777-20.517-5.387-33.977a41.109,41.109,0,0,0-3.8-7.538,46.155,46.155,0,0,1,4.911,19.862s-21.258-7.284-42.76-7.284-43.25,7.284-43.25,7.284A60.2,60.2,0,0,1,25.36,33.825a42.247,42.247,0,0,0-2.3,5.01C16.89,52.3,17.416,66.153,17.669,72.812c.314,8.323,3.485,14.291,7.5,21.848,1.535,2.888,3.121,5.875,4.762,9.363,4.568,9.708,10.514,16.647,18.743,26.252l.258.3c.524.611,1.04,1.21,1.577,1.83v17.077c-7.748,1.125-15.152,2.561-15.97,2.722h-.051l-27.7,10.04Z" transform="translate(36.819 5.844)"/>
  </g>
</svg>
