<svg xmlns="http://www.w3.org/2000/svg" width="113.123" height="85.862" viewBox="0 0 113.123 85.862">
  <g id="short_hair_2" data-name="short hair 2" transform="translate(-43.84 -1.462)">
    <path id="Path_13" data-name="Path 13" d="M12.029-10.825C21.7-19.5,39.135-14.948,52.955-18.6s20.35-10.438,25.972-11.937c3.939.131,0,32.456,0,32.456S26.271,6.977,18.588,18.595s-6.559,36.728-6.559,36.728S3.138,43.341,3.035,42.956C-.675,29.172-4.414,3.932,12.029-10.825Z" transform="translate(44 32)"/>
    <path id="Path_14" data-name="Path 14" d="M51.962-11.05c-9.669-8.677-3.777-4.385-17.6-8.039V1.917a52.121,52.121,0,0,1,17.6,16.678c7.683,11.618,6.559,36.728,6.559,36.728s8.891-11.982,8.995-12.368C71.225,29.172,68.405,3.707,51.962-11.05Z" transform="translate(88 32)"/>
  </g>
</svg>
