<svg version="1.1" id="Layer_1" xmlns="http://www.w3.org/2000/svg" xmlns:xlink="http://www.w3.org/1999/xlink" x="0px" y="0px"
     viewBox="0 0 512 512" style="enable-background:new 0 0 512 512;" xml:space="preserve">
<g>
	<path fill="white" d="M277.05,335.92c-13.22,0-20.88,12.58-20.88,29.35c0,16.9,7.95,28.83,20.98,28.83c13.25,0,20.8-12.55,20.8-29.35
		C297.95,349.3,290.5,335.92,277.05,335.92z"/>
    <path fill="white" d="M307.2,0H102.4C74.12,0,51.2,22.95,51.2,51.2v409.6c0,28.28,22.92,51.2,51.2,51.2h307.2c28.25,0,51.2-22.92,51.2-51.2
		V153.6L307.2,0z M154.15,376.42c0,24.6-11.8,33.18-30.72,33.18c-4.5,0-10.38-0.75-14.25-2.05l2.2-15.75c2.65,0.9,6.12,1.55,10,1.55
		c8.18,0,13.32-3.73,13.32-17.15v-54.33h19.48v54.55H154.15z M191.5,409.48c-9.85,0-19.6-2.55-24.45-5.25l3.97-16.15
		c5.23,2.67,13.33,5.4,21.65,5.4c8.97,0,13.68-3.75,13.68-9.35c0-5.4-4.08-8.48-14.45-12.17c-14.38-5-23.72-12.95-23.72-25.5
		c0-14.75,12.32-26.05,32.7-26.05c9.73,0,16.88,2.05,22.05,4.4l-4.43,15.73c-3.45-1.65-9.6-4.07-18.05-4.07
		c-8.43,0-12.55,3.82-12.55,8.3c0,5.5,4.85,7.98,16.05,12.2c15.25,5.62,22.43,13.55,22.43,25.75
		C226.4,397.17,215.2,409.48,191.5,409.48z M276.12,409.6c-25.62,0-40.6-19.33-40.6-43.93c0-25.9,16.55-45.27,42.05-45.27
		c26.5,0,40.97,19.88,40.97,43.7C318.52,392.45,301.38,409.6,276.12,409.6z M402.77,408.2h-20.52l-18.45-33.33
		c-5.12-9.2-10.72-20.38-14.97-30.48l-0.43,0.12c0.55,11.4,0.8,23.58,0.8,37.68v26.02h-17.95v-86.35h22.8L372,353.52
		c5.12,9.05,10.25,19.83,14.15,29.55h0.35c-1.27-11.38-1.67-23.03-1.67-36v-25.2h17.97v86.33H402.77z M307.2,179.2
		c-14.18,0-25.6,0-25.6,0v-128l128,128H307.2z"/>
</g>
</svg>