<svg xmlns="http://www.w3.org/2000/svg" width="94.135" height="164.177" viewBox="0 0 94.135 164.177">
  <path id="Path_20" data-name="Path 20" d="M40,0C54.094-.1,69.564,3.661,69.564,3.661S68.272,28.38,40,28.632,10.318,4.055,10.318,4.055,30.943,0,40,0Z" transform="translate(6.635 135.543)" fill="#ab6d43"/>
  <path id="Path_17" data-name="Path 17" d="M0,0H27.674V18.707s-7.067,5.331-13.985,5.331S0,18.707,0,18.707Z" transform="translate(32.961 118.693)" fill="#ab6d43"/>
  <path id="Path_18" data-name="Path 18" d="M45.5-1.531V128.531a2.211,2.211,0,0,1-1.622,0c-4.625-1.717-5.847-2.446-14.129-12.112s-14.386-16.743-19-26.553C4.7,77.009-1.081,70.076-1.513,58.655c-.3-7.991-.506-21.108,5.387-33.977C14.484-2.921,45.5-1.531,45.5-1.531Z" transform="translate(1.635 1.543)" fill="#ab6d43"/>
  <path id="Path_19" data-name="Path 19" d="M-1.635-1.531V128.531a2.211,2.211,0,0,0,1.622,0c4.625-1.717,5.847-2.446,14.129-12.112s14.386-16.743,19-26.553c6.049-12.857,11.829-19.79,12.26-31.211.3-7.991.506-21.108-5.387-33.977C29.381-2.921-1.635-1.531-1.635-1.531Z" transform="translate(48.635 1.543)" fill="#8f5a36"/>
</svg>
