<svg xmlns="http://www.w3.org/2000/svg" width="94.135" height="143.731" viewBox="0 0 94.135 143.731">
  <path id="Path_3" data-name="Path 3" d="M0,0H37V17.267s-9.448,4.921-18.7,4.921S0,17.267,0,17.267Z" transform="translate(28.635 121.543)" fill="#ab6d43"/>
  <path id="Path_1" data-name="Path 1" d="M45.5-1.531V128.531a5.474,5.474,0,0,1-1.98-.268c-4.625-1.717-25.818-10.337-29.494-15.328-4.14-5.62-5.1-11.162-7.458-26.1-1.355-8.592-7.649-16.755-8.08-28.176-.3-7.991-.506-21.108,5.387-33.977C14.484-2.921,45.5-1.531,45.5-1.531Z" transform="translate(1.635 1.543)" fill="#ab6d43"/>
  <path id="Path_2" data-name="Path 2" d="M-1.635-1.531V128.531a5.474,5.474,0,0,0,1.98-.268c4.625-1.717,25.818-10.337,29.494-15.328,4.14-5.62,5.1-11.162,7.458-26.1,1.355-8.592,7.649-16.755,8.08-28.176.3-7.991.506-21.108-5.387-33.977C29.381-2.921-1.635-1.531-1.635-1.531Z" transform="translate(48.635 1.543)" fill="#8f5a36"/>
</svg>
