<svg id="SVGRepo_iconCarrier" xmlns="http://www.w3.org/2000/svg" width="24.405" height="24.404" viewBox="0 0 24.405 24.404">
    <rect id="Rechteck_22" data-name="Rechteck 22" width="4.067" height="11.034" transform="translate(4.024 11.423)" fill="#fff"/>
    <rect id="Rechteck_23" data-name="Rechteck 23" width="3.851" height="7.356" transform="translate(8.091 15.101)" fill="#fff"/>
    <rect id="Rechteck_24" data-name="Rechteck 24" width="3.851" height="18.39" transform="translate(14.02 4.067)" fill="#fff"/>
    <rect id="Rechteck_25" data-name="Rechteck 25" width="4.067" height="14.712" transform="translate(17.871 7.746)" fill="#fff"/>
    <path id="Pfad_34" data-name="Pfad 34" d="M24.015,22.068H2.337V.389a.389.389,0,1,0-.779,0V3.678H.389a.389.389,0,1,0,0,.779H1.558v2.9H.389a.389.389,0,1,0,0,.779H1.558v2.9H.389a.389.389,0,0,0,0,.779H1.558v2.9H.389a.389.389,0,0,0,0,.779H1.558v2.9H.389a.389.389,0,0,0,0,.779H1.558v3.289a.389.389,0,0,0,.389.389H7.7v1.168a.389.389,0,1,0,.779,0V22.847h9v1.168a.389.389,0,1,0,.779,0V22.847h5.755a.389.389,0,1,0,0-.779Z" fill="#fff"/>
</svg>